<svg xmlns="http://www.w3.org/2000/svg" width="1858.079" height="2293.13" version="1.1" viewBox="0 0 929.039 1146.565"><defs><style class="style-fonts">@font-face{font-family:&quot;Virgil&quot;;src:url(https://excalidraw.com/Virgil.woff2)}@font-face{font-family:&quot;Cascadia&quot;;src:url(https://excalidraw.com/Cascadia.woff2)}</style></defs><rect width="929.039" height="1146.565" x="0" y="0" fill="#fff"/><g stroke-linecap="round"><path fill="none" stroke="#fab005" stroke-width="1" d="M0 0 C0 0, 0 0, 0 0 M0 0 C0 0, 0 0, 0 0 M-0.18 11.43 C4.17 8.87, 5.1 5.19, 10.41 0.48 M-0.31 12.31 C1.83 10.06, 5.64 6.95, 10.98 0.56 M2.04 22.37 C6.17 18.73, 8.26 13.49, 21.18 0.73 M0.75 24.85 C8.4 13.92, 16.87 5.54, 20.33 0.55 M0.57 38.18 C5.1 28.43, 15.48 21.49, 31.37 -1.61 M-1.16 36.3 C10.4 24.84, 21.65 12.47, 32.78 0.49 M1.23 50.19 C18.15 28.46, 34.01 10.35, 43.12 -1.03 M-0.02 49.13 C10.29 35.63, 21.71 24.41, 43.4 -0.76 M1.18 60.78 C9.97 46.85, 24.62 33.26, 51.23 1.23 M1.65 59.57 C19.38 37.44, 40.12 14.01, 53.9 -0.16 M11.45 59.12 C24.4 45.47, 36.11 29.61, 63.17 1.27 M11.24 59.59 C32.19 37.34, 51.26 14.19, 64.64 -0.37 M20.62 61.65 C40.61 37.53, 61.24 17.71, 74.98 0.6 M21.77 59.34 C39.71 37.62, 59.81 15.45, 74.67 0.26 M31.77 58.88 C46.89 44.51, 59.06 28.53, 83.36 -1.92 M32.8 59.99 C45.33 44.7, 57.43 31.45, 85.76 -0.28 M44.58 58.67 C58.66 42.41, 74.88 23.19, 97.63 -2.03 M42.59 61.01 C62.9 37, 82.94 15.84, 96.33 0.29 M55.38 58.27 C73.5 38.43, 92.26 18.09, 107.74 -2.12 M54.06 60.18 C72.63 38.44, 91.11 16.19, 105.51 0.55 M65.09 60.3 C80.79 38.79, 101.96 16.73, 115.58 1.57 M64.84 59.6 C76.27 46.39, 86.78 33.65, 116.45 0.18 M75.3 60.76 C87.94 45.91, 101.11 29.85, 125.66 -0.11 M75.25 59.67 C86.05 46.82, 97.83 35.48, 126.96 0.88 M84.19 61.01 C102.11 41.16, 119.57 20.19, 136.5 0.11 M86.27 59.11 C95.72 46.74, 107.71 34.94, 136.92 1.7 M94.58 59.81 C108.3 47.26, 119.3 34.05, 135.34 11.9 M95.6 58.97 C110.26 45.06, 124.09 28.87, 137.01 13.05 M105.9 61.27 C116.3 47.21, 127.46 33.32, 137.08 24.45 M107.61 60.58 C117.13 47.9, 126.94 35.31, 137.64 25.76 M118.24 58.89 C126.83 52.9, 133.09 44.43, 135.44 35.62 M117.36 59.61 C125.3 51.79, 132.78 41.12, 138.05 36.31 M128.25 59.63 C130.72 58.35, 133.39 53.75, 136.3 49.61 M128.46 59.94 C130.72 57.27, 133.78 54.02, 137.25 50.15 M-0.03 59.48 C-0.03 59.48, -0.03 59.48, -0.03 59.48 M-0.03 59.48 C-0.03 59.48, -0.03 59.48, -0.03 59.48 M13.46 59.82 C7.35 55.18, 2.92 49.87, -1.09 47.99 M12.37 59.91 C8.33 56.58, 3.53 52.79, -0.79 48.11 M24.75 60.56 C20.58 53.33, 13.73 51.86, 0.67 36.99 M24.93 59.46 C19.23 55.65, 14.87 51.27, 0.64 38.11 M35.15 58.11 C23.01 49.75, 9.46 38.63, 1.12 26.81 M37.5 59.92 C26.39 50.27, 14.81 41.31, 0.58 27.17 M47.32 61.01 C38.88 51.05, 23.55 37.89, 1.44 15.35 M49.86 59.64 C30.66 43.72, 14.02 28.51, 0.23 17.45 M62.46 61.05 C46.14 46.1, 30.97 35.46, -0.29 6.12 M60.64 59.14 C37.16 37.62, 12.49 16.13, -0.35 5.62 M73.64 58.71 C47.8 34.86, 20.44 11.79, 0.87 -2.04 M72.38 58.56 C56.38 45.35, 38.77 30.62, 1.86 -1.4 M86.54 59.88 C62.8 37.18, 41.37 20.25, 15.8 -4.34 M84.34 58.39 C61.65 38.42, 35.48 17.45, 13.83 -1.75 M96.24 60.45 C83.99 46.75, 67.32 31.19, 26.62 -1.68 M97.22 60.05 C82.2 46.33, 68.03 32.98, 25.87 -2.37 M108.18 59.73 C87.34 40.68, 69.11 24.81, 38.65 -0.4 M110.12 59.33 C84.03 38.14, 59.93 17.4, 39.56 -2.69 M122.67 60.38 C105.45 43.88, 90.9 32.97, 51.58 -3.45 M121.11 60.3 C98.46 40.31, 75.75 21.26, 50.88 -1.81 M135.9 57.76 C106.57 36.59, 81.73 14.24, 63.98 -2.43 M134.19 58.68 C111.89 41.39, 91.04 22.79, 62.76 -2.53 M139.41 56.02 C117.04 33.33, 90.45 12.17, 74.28 -4.21 M140.76 53.9 C119.93 37, 100.02 19.05, 74.09 -2.02 M141.13 43.99 C122.53 29.69, 105.45 12.22, 85.55 -2.3 M140.69 43.01 C129.14 34.87, 118.79 24.91, 86.43 -3.11 M141.91 35.05 C127.63 22.25, 109.85 9.29, 98.25 -0.17 M140.82 32.56 C130.83 24.93, 118.84 15.72, 100.77 -1.67 M140.46 22.08 C132.67 14.1, 121.92 5.55, 111.18 -1.89 M139.9 23.52 C130.45 14.2, 119.68 4.4, 112.55 -1.24 M140.08 11.33 C135.11 8.53, 129.05 1.01, 122.02 -4.18 M141.38 11.19 C136.27 7.03, 130.49 4.15, 124.13 -3.07" transform="translate(207.0810141848201 320.20988454502276) rotate(0 68.01329406302557 29.755816152573658)"/><path fill="none" stroke="#000" stroke-dasharray="8 10" stroke-width="2.5" d="M-1.83 0.51 C30.68 0.66, 58.34 -1.71, 134.83 0.43 M136.03 0.12 C137.07 23.26, 135.76 43.93, 135.97 57.8 M134.83 59.41 C85.93 61.68, 41.39 62.47, -0.2 57.91 M0.6 59.74 C-0.18 39.74, 0.73 19.74, 0.34 -0.11" transform="translate(207.0810141848201 320.20988454502276) rotate(0 68.01329406302557 29.755816152573658)"/></g><g stroke-linecap="round"><path fill="none" stroke="#fab005" stroke-width="1" d="M0 0 C0 0, 0 0, 0 0 M0 0 C0 0, 0 0, 0 0 M1.45 12.5 C3.34 8.99, 5.55 5.25, 9.56 -0.64 M-0.51 11.89 C3.71 7.31, 8.2 2.25, 9.96 0.23 M1.62 23.11 C4.98 17.9, 13.76 11.04, 21.24 -1.05 M0.91 24.73 C4.47 17.81, 10.45 11.65, 21.15 0.47 M-1 36.33 C12.33 23.3, 25.93 7.61, 32.98 1.13 M-0.52 36.37 C6.71 27.97, 14.55 20.35, 31.19 0.08 M-2.08 47.64 C17.63 31.4, 33.92 12.17, 40.82 -1.01 M-0.9 48.23 C9.47 39.03, 19.2 27.05, 42.86 -1.1 M1.04 60.04 C18.67 39.76, 34.96 20.63, 53.72 -0.84 M0.55 60.36 C19.91 37.42, 39.93 15.54, 53.77 -0.97 M0.3 73.15 C13.63 55.48, 30.27 39.45, 65.22 1.62 M-0.05 72.34 C17.38 53.47, 34.05 32.53, 64.25 -1.12 M0.28 83.97 C22.55 57.25, 49.57 29.28, 73.54 -0.24 M0.11 84.09 C22.51 57.96, 45.77 32.96, 75.28 -0.84 M1.49 99.62 C25.66 66.86, 51.96 37.88, 85.48 0.32 M-0.12 98.57 C26.81 66.86, 53.2 36.61, 84.55 -1.08 M-0.92 110.34 C32.9 72.47, 61.95 38.96, 96.48 -0.58 M0.74 110.82 C35.01 70.61, 68.17 31.11, 96.44 -0.51 M-1.17 122 C26.73 90.35, 53.36 57.58, 106.61 -1.45 M0.93 122.44 C37.02 80.8, 71.11 39.96, 106 0.54 M5.04 127.07 C27.93 101.66, 53.72 72.83, 115.91 1.35 M5.24 128.53 C46.57 81.21, 88.52 33.52, 116.33 0.79 M17.43 129.42 C57.04 79.8, 98.82 33.66, 127 -1.46 M15.93 128.59 C44.31 97.04, 71.21 65.75, 127.18 1.02 M27.04 128.32 C66.66 81.07, 105.52 35.75, 137.17 0.51 M26.68 128.42 C63.78 87.11, 97.67 46.78, 137.01 0.57 M38.17 127.16 C71.7 89.18, 111.08 48.58, 146.37 5.26 M36.46 128.87 C64.19 98.25, 88.79 69.11, 145.01 3.37 M45.7 128.42 C70.95 101.81, 97.64 72.88, 144.53 15.21 M46.89 128.86 C71 100.83, 94.57 73.61, 146.43 14.68 M59.16 130.23 C91.69 91.47, 125.4 54.13, 147.34 27.05 M58.32 127.84 C78.27 106.97, 96.89 85.08, 146.32 26.98 M69.37 127.33 C84.41 105.81, 103.2 86.23, 146.59 40.66 M68.43 128.85 C91.19 103.49, 112.64 78.25, 145.91 40.87 M79.77 127.85 C96.38 108.94, 111.17 93.13, 144.66 51.01 M79.59 129.25 C105.9 99.4, 131.93 68.04, 145.07 52.99 M90.42 129.27 C102.87 113.1, 114.52 100.94, 146.59 64.74 M88.86 128.69 C106.77 108.77, 125.54 87.15, 146.38 64.57 M102.02 126.48 C114.45 113.21, 127.92 97.55, 146.68 77.08 M99.99 129.13 C111.96 114.61, 123.02 101.94, 145.79 76.4 M111.88 127.72 C121.53 114.16, 132.86 100.38, 143.88 88.68 M111.43 128.86 C120.63 118.37, 130.2 106.05, 145.91 87.57 M121.95 126.6 C129.75 117.68, 136.78 110.79, 145.11 102.26 M122.28 128.48 C126.99 123.15, 132.07 115.64, 145.41 100.25 M130.78 130.13 C134.55 122.51, 140.94 119.68, 143.86 111.7 M132.36 128.9 C135.01 124.96, 138.33 121.41, 145.58 112.64 M-0.14 123.63 C-0.14 123.63, -0.14 123.63, -0.14 123.63 M-0.14 123.63 C-0.14 123.63, -0.14 123.63, -0.14 123.63 M12.38 124.92 C7.28 119.69, 7.26 116.95, -1.65 112.61 M11.37 122.79 C9.19 119.97, 5.03 118.1, -0.37 113.01 M25.46 123.03 C16.8 117.46, 10.63 110.76, -1.43 103.09 M24.91 124.56 C17.52 117.49, 8.33 110.28, 0.53 101.59 M36.96 122.5 C24.27 113.76, 16.08 104.19, -0.96 93.51 M37.18 123.39 C23.49 112.64, 13.03 103.12, 0.37 92.64 M49.44 122.22 C31.31 108.61, 17.01 94.92, -1.28 82.02 M48.05 124.25 C29.58 107.48, 11.55 92.22, 0.54 81.46 M61.21 125.44 C38.66 102.44, 13.48 84.74, 1.53 72.24 M61.45 123.91 C41.66 106.53, 21.54 90, -0.84 69.63 M71.21 124.78 C58.4 109.28, 40.92 95.51, 0.05 61.16 M72 123.48 C50.25 102.62, 25.65 83.08, -0.95 59.06 M83.78 122.88 C55.03 95.75, 22.9 71.75, 0.23 51.83 M85.77 123.02 C60.56 101.28, 33.71 78.16, 0.44 50.64 M97.58 125.81 C60.69 91.41, 25.77 59.22, -1.63 38.66 M97.26 122.93 C71.46 100.26, 46.43 77.46, 0.03 39.57 M110.19 122.98 C78.69 97.93, 49.2 73.89, 1.67 27.43 M109.89 123.91 C84.44 103.76, 60.47 81.34, -0.56 29.38 M123.05 124.5 C82.89 85.39, 41.54 50.69, 1.19 16.65 M121.04 124.3 C94.2 101.64, 67.13 77.85, 0.23 17.2 M134.24 121.86 C88.51 85.7, 41.31 47.74, 0.63 6.18 M134.77 122.75 C89.2 84.58, 45.03 46.26, 0.64 6.52 M144.16 121.98 C100.89 84.25, 58.62 45.6, 1.81 -1.41 M143.57 122.28 C106.37 87.15, 66.2 54.01, 1.13 -1.58 M144.6 112.53 C99.58 69.69, 54.48 33.74, 14.72 -3.65 M143.33 111.61 C93.92 68.12, 45 24.13, 14.37 -1.11 M145.31 101.67 C118.71 77.59, 91.75 55.73, 26.38 -1.7 M143.97 100.85 C115.95 76.6, 89.36 51.91, 26.1 -2.87 M142.86 90.39 C103.42 54.08, 65.64 20.75, 39.73 -1.56 M144.31 89.92 C118.65 69.2, 95.67 47.83, 38.08 -1.47 M142.42 77.06 C114.45 55.28, 86.27 29.34, 52.06 -1.77 M143.85 79.03 C124.39 62.25, 106.71 46.82, 50.49 -1.2 M141.83 69.44 C110.11 43.72, 79.78 15.06, 63.59 -1.58 M142.78 68.73 C125.89 53.54, 107.34 38.49, 62.45 -2.04 M143.52 56.63 C123.75 41.73, 107.48 26.52, 74.37 -3.47 M143.96 57.86 C117.47 36.37, 90.9 12.67, 75.03 -2.34 M142.57 45.14 C126.61 32.52, 113.51 21.36, 85.1 -0.58 M142.95 47.57 C131.38 35.49, 119.49 26.7, 85.96 -2.14 M142.65 34.84 C128.76 22.95, 114.92 10.98, 97.84 0 M144.01 37.33 C131.17 26.08, 120.09 16.83, 100.45 -2.49 M144.84 27.63 C132.27 17.15, 119.09 6.11, 113.04 -1.43 M144.83 25.59 C133.46 15.44, 121.85 5.89, 112.11 -2.11 M144.58 16.82 C139.61 10.14, 134.68 6.16, 122.01 -1.22 M143.51 15.13 C138.84 11.1, 132.39 6.67, 123.49 -1.43 M144.09 6.17 C141.39 2.38, 137.84 -0.05, 135.82 -2.6 M143.51 5.05 C142.14 3.57, 139.11 1.58, 135.36 -1.63" transform="translate(55.94036071143046 320.20988454502276) rotate(0 70.8471813156516 61.873205015669015)"/><path fill="none" stroke="#000" stroke-dasharray="8 10" stroke-width="2.5" d="M-1.87 0.98 C55.11 0.73, 110.56 -1.24, 141.36 -1.29 M140.8 0.61 C143.41 27.31, 142.27 55.11, 141.88 122.03 M142.86 124.73 C107.76 126.8, 75.49 126.51, 1.26 124.65 M-0.64 123.4 C0.46 88.35, -1.55 48.01, -1.03 1.27" transform="translate(55.94036071143046 320.20988454502276) rotate(0 70.8471813156516 61.873205015669015)"/></g><g stroke-linecap="round"><path fill="none" stroke="#000" stroke-width="4" d="M32 0 M32 0 C249.89 3.01, 468.41 2.3, 833.56 0 M32 0 C325.03 2.7, 618.71 2.37, 833.56 0 M833.56 0 C854.89 1.02, 866.28 8.8, 865.56 32 M833.56 0 C854.06 0.39, 864.62 9.41, 865.56 32 M865.56 32 C864.97 234.56, 865.64 436.78, 865.56 788 M865.56 32 C863.59 206.31, 863.48 379.94, 865.56 788 M865.56 788 C864.91 807.49, 853.6 821.36, 833.56 820 M865.56 788 C865.84 807.31, 855.58 821.11, 833.56 820 M833.56 820 C602.03 821.82, 369.62 822.45, 32 820 M833.56 820 C532.69 819.76, 232.29 819.92, 32 820 M32 820 C10.71 819.46, -0.35 808.78, 0 788 M32 820 C8.54 819.23, 1.51 809.51, 0 788 M0 788 C-1.63 626.06, -3.17 464.09, 0 32 M0 788 C-2.1 501.89, -1.94 214.81, 0 32 M0 32 C0.43 10.65, 8.7 1.33, 32 0 M0 32 C-0.45 8.84, 10.74 1.34, 32 0" transform="translate(47.87429697730886 313.10232365054844) rotate(0 432.77878535472155 410)"/></g><g stroke-linecap="round"><g><path fill="none" stroke="#000" stroke-width="4" d="M0.19 0.73 C145.45 0.72, 726.84 -0.21, 872.12 -0.21 M-1.17 0.07 C143.97 0.25, 726.28 1.43, 871.71 1.22" transform="translate(45.08153882981196 448.3965336282067) rotate(0 435.4739774594425 0.5182366679567707)"/></g></g><g stroke-linecap="round"><g><path fill="none" stroke="#000" stroke-width="4" d="M1.12 0.69 C145.21 0.7, 720.91 1.12, 864.71 1.17 M0.25 0 C144.14 0.22, 719.3 -0.21, 863.63 -0.34" transform="translate(50.08153882981196 590.3965336282067) rotate(0 432.4790650824964 0.41216213862878703)"/></g></g><g stroke-linecap="round"><g><path fill="none" stroke="#000" stroke-width="4" d="M-0.45 1.13 C144.02 1.06, 722.09 -0.54, 866.57 -0.6 M1.51 0.68 C146.4 0.77, 724.38 0.94, 868.96 0.63" transform="translate(50.08153882981196 730.3965336282067) rotate(0 434.25275825994095 0.2679481744766292)"/></g></g><g stroke-linecap="round"><g><path fill="none" stroke="#000" stroke-width="4" d="M-0.63 0.8 C143.08 0.46, 718.94 -0.56, 863.13 -0.88 M1.24 0.18 C145.27 0.48, 721.65 0.29, 865.45 0.2" transform="translate(50.08153882981196 875.3965336282067) rotate(0 432.4138171020443 -0.038110756874061735)"/></g></g><g stroke-linecap="round"><g><path fill="none" stroke="#000" stroke-width="4" d="M0.52 0.21 C144.64 0.59, 720.24 1.04, 864.1 1.17 M-0.67 -0.72 C143.37 -0.56, 719.36 -0.33, 863.28 -0.34" transform="translate(50.08153882981196 1005.3965336282067) rotate(0 431.7161011748308 0.2248054477153687)"/></g></g><g stroke-linecap="round"><g><path fill="none" stroke="#000" stroke-width="4" d="M0.19 0.13 C0.03 136.48, -0.18 681.4, -0.23 817.77 M-1.17 -0.84 C-1.56 135.73, -1.34 683.12, -1.29 819.32" transform="translate(202.85347677387563 315.0681353656174) rotate(0 -0.6045153020666021 409.2392695613654)"/></g></g><g stroke-linecap="round"><g><path fill="none" stroke="#000" stroke-width="4" d="M0.94 -0.18 C0.77 136.33, -0.02 681.97, 0.02 818.41 M-0.03 -1.31 C-0.45 134.9, -1.09 680.33, -0.91 816.63" transform="translate(347.8534767738756 318.0681353656174) rotate(0 -0.0027882045171736536 408.54564732172815)"/></g></g><g stroke-linecap="round"><g><path fill="none" stroke="#000" stroke-width="4" d="M0.36 -0.97 C0.34 134.97, -0.84 680.25, -0.79 816.56 M-0.92 1.14 C-0.48 137.1, 1.31 681.37, 1.51 817.47" transform="translate(487.8534767738752 318.0681353656174) rotate(0 0.2958281190044545 408.24969807201353)"/></g></g><g stroke-linecap="round"><g><path fill="none" stroke="#000" stroke-width="4" d="M-1 0.81 C-0.79 137, 0.46 680.98, 0.79 817.23 M0.68 0.18 C0.83 136.53, 0.25 682.49, 0.25 818.5" transform="translate(627.8534767738752 318.0681353656174) rotate(0 -0.10542676448812927 409.34025869329287)"/></g></g><g stroke-linecap="round"><g><path fill="none" stroke="#000" stroke-width="4" d="M-0.01 -0.66 C-0.24 135.72, -0.81 681.75, -0.88 818.32 M-1.47 1.6 C-1.38 137.63, 1.35 680.61, 1.37 816.49" transform="translate(762.8534767738752 318.0681353656174) rotate(0 -0.0488256972189447 408.8271047629212)"/></g></g><g><text x="84.375" y="0" fill="#000" direction="ltr" dominant-baseline="text-before-edge" font-family="Cascadia, Segoe UI Emoji" font-size="36" text-anchor="end" style="white-space:pre" transform="translate(81.08108474677192 362.45285468644386) rotate(0 42.1875 21.599999999999994)">8 MB</text></g><g><text x="0" y="0" fill="#000" direction="ltr" dominant-baseline="text-before-edge" font-family="Cascadia, Segoe UI Emoji" font-size="36" text-anchor="start" style="white-space:pre" transform="translate(228.50764036332566 332.8487537230461) rotate(0 42.1875 21.599999999999994)">2 MB</text></g><g><text x="0" y="0" fill="#000" direction="ltr" dominant-baseline="text-before-edge" font-family="Cascadia, Segoe UI Emoji" font-size="36" text-anchor="start" style="white-space:pre" transform="translate(803.942338941049 1058.373955679553) rotate(0 42.1875 21.600000000000023)">....</text></g><g stroke-linecap="round"><g><path fill="none" stroke="#000" stroke-width="4" d="M-0.39 -0.52 C-0.3 34.35, 0.2 175.11, 0.72 210.35 M1.61 1.83 C2.05 37.35, 2.81 176.47, 2.98 211.53" transform="translate(466.936318592077 58.58669142482168) rotate(0 1.2938663295913102 105.50547950634454)"/></g><g><path fill="none" stroke="#000" stroke-width="4" d="M-8.29 181.93 C-5.01 194.31, -0.74 202.27, 2.42 209.86 M-7.33 183.38 C-3.79 194.8, 1.32 204.87, 2.04 211.37" transform="translate(466.936318592077 58.58669142482168) rotate(0 1.2938663295913102 105.50547950634454)"/></g><g><path fill="none" stroke="#000" stroke-width="4" d="M12.23 181.82 C8.98 194.17, 6.73 202.17, 2.42 209.86 M13.19 183.28 C8.72 194.89, 5.82 205, 2.04 211.37" transform="translate(466.936318592077 58.58669142482168) rotate(0 1.2938663295913102 105.50547950634454)"/></g></g><g><text x="0" y="0" fill="#000" direction="ltr" dominant-baseline="text-before-edge" font-family="Virgil, Segoe UI Emoji" font-size="36" text-anchor="start" style="white-space:pre" transform="translate(315.1851555121625 10) rotate(0 169.97393798828125 21.599999999999994)">10 MB File Incoming</text></g><g><text x="0" y="0" fill="#000" direction="ltr" dominant-baseline="text-before-edge" font-family="Virgil, Segoe UI Emoji" font-size="36" text-anchor="start" style="white-space:pre" transform="translate(10 170.943415344722) rotate(0 194.07595825195312 21.599999999999998)">Block Storing methods</text></g><g stroke-linecap="round"><path fill="none" stroke="#fab005" stroke-width="1" d="M0.63 4.52 C0.63 4.52, 0.63 4.52, 0.63 4.52 M0.63 4.52 C0.63 4.52, 0.63 4.52, 0.63 4.52 M0.11 17.32 C3.31 13.72, 9.04 7.06, 11.91 3.73 M0.11 17.32 C3.38 13.31, 7.67 8.81, 11.91 3.73 M2.21 27.09 C9.41 17.16, 18.52 5.85, 25.17 0.68 M2.21 27.09 C7.85 20.4, 14.46 12.69, 25.17 0.68 M5.62 35.36 C15.76 24.94, 23.89 15.19, 33.17 3.66 M5.62 35.36 C15.28 23.5, 24.06 12.4, 33.17 3.66 M13.63 38.35 C19.59 31.38, 25.06 24.36, 36.59 11.93 M13.63 38.35 C19.57 31.81, 25.09 24.7, 36.59 11.93 M26.88 35.29 C30.01 32.9, 32.12 28.41, 34.1 26.99 M26.88 35.29 C28.48 33.63, 30.22 31.31, 34.1 26.99 M2.43 32.26 C2.43 32.26, 2.43 32.26, 2.43 32.26 M2.43 32.26 C2.43 32.26, 2.43 32.26, 2.43 32.26 M12.21 30.16 C8.57 26.35, 4.41 25.13, 3.15 22.28 M12.21 30.16 C10.01 27.86, 7.23 25.68, 3.15 22.28 M26.51 31.99 C21.24 27.5, 13.37 20.23, 3.12 11.65 M26.51 31.99 C21.69 27.84, 16.12 22.57, 3.12 11.65 M34.03 27.92 C23.83 19.94, 16.05 9.33, 3.08 1.02 M34.03 27.92 C26.36 21.77, 20.93 14.84, 3.08 1.02 M37.77 20.57 C30.83 13.54, 21.3 3.28, 10.6 -3.04 M37.77 20.57 C27.74 13, 18.25 4.47, 10.6 -3.04 M33.96 6.66 C32.13 4.16, 30.12 4.34, 25.66 -0.55 M33.96 6.66 C30.63 4.27, 27.06 0.83, 25.66 -0.55" transform="translate(666.1707491102429 20.76246485086901) rotate(0 16.53100897365175 17.003323515756364)"/><path fill="none" stroke="#000" stroke-dasharray="8 10" stroke-width="2.5" d="M8.27 0 M8.27 0 C12.73 -1.44, 16.62 -0.7, 24.8 0 M24.8 0 C29.85 0.64, 31.32 1.09, 33.06 8.27 M33.06 8.27 C32.33 15.27, 32.18 18.69, 33.06 25.74 M33.06 25.74 C33.6 32.71, 30.79 33.98, 24.8 34.01 M24.8 34.01 C21.71 35.05, 17.57 32.49, 8.27 34.01 M8.27 34.01 C2.13 34.03, -1.29 31.03, 0 25.74 M0 25.74 C-1.88 18.9, -0.64 13.15, 0 8.27 M0 8.27 C0.63 3.49, 2.23 1.09, 8.27 0" transform="translate(666.1707491102429 20.76246485086901) rotate(0 16.53100897365175 17.003323515756364)"/></g></svg>