<svg xmlns="http://www.w3.org/2000/svg" width="2443.124" height="1913.878" version="1.1" viewBox="0 0 1221.562 956.939"><defs><style class="style-fonts">@font-face{font-family:&quot;Virgil&quot;;src:url(https://excalidraw.com/Virgil.woff2)}@font-face{font-family:&quot;Cascadia&quot;;src:url(https://excalidraw.com/Cascadia.woff2)}</style></defs><rect width="1221.562" height="956.939" x="0" y="0" fill="#fff"/><g stroke-linecap="round"><path fill="none" stroke="#000" stroke-width="4" d="M32 0 M32 0 C280.76 1.93, 527.2 2.06, 1168 0 M32 0 C301.69 -1.95, 572.45 -2.09, 1168 0 M1168 0 C1189.44 -0.28, 1198.38 10.95, 1200 32 M1168 0 C1190.6 -0.44, 1200.19 9.11, 1200 32 M1200 32 C1201.54 206.19, 1200.69 379.55, 1200 750 M1200 32 C1201.93 317.1, 1201.54 601.91, 1200 750 M1200 750 C1198.13 771.61, 1189.74 780.98, 1168 782 M1200 750 C1199.55 770.11, 1190.18 784.23, 1168 782 M1168 782 C817.05 786.17, 464.4 785.59, 32 782 M1168 782 C821.84 784.22, 476.53 784.81, 32 782 M32 782 C10.11 782.84, 0.72 772.36, 0 750 M32 782 C10.38 780.34, -1.52 771.44, 0 750 M0 750 C1.12 569.06, 1.06 388.34, 0 32 M0 750 C1.17 547.63, 1.53 344.26, 0 32 M0 32 C1.54 10.03, 11.59 -1.78, 32 0 M0 32 C-0.82 10.83, 10.53 0.78, 32 0" transform="translate(10 162) rotate(0 600 391)"/></g><g stroke-linecap="round"><g><path fill="none" stroke="#000" stroke-width="4" d="M-0.47 0.82 C199.36 0.49, 999.44 -0.86, 1199.56 -1.17 M1.49 0.2 C201.07 -0.09, 998.69 -0.17, 1198.38 -0.25" transform="translate(12 304) rotate(0 599.547327017784 -0.17752454280853414)"/></g></g><g><text x="0" y="0" fill="#000" direction="ltr" dominant-baseline="text-before-edge" font-family="Virgil, Segoe UI Emoji" font-size="36" text-anchor="start" style="white-space:pre" transform="translate(76 224) rotate(0 98.4239501953125 21.599999999999998)">File System</text></g><g><text x="0" y="0" fill="#000" direction="ltr" dominant-baseline="text-before-edge" font-family="Virgil, Segoe UI Emoji" font-size="36" text-anchor="start" style="white-space:pre" transform="translate(487 219) rotate(0 72.77396392822266 21.599999999999998)">lvextend</text></g><g><text x="0" y="0" fill="#000" direction="ltr" dominant-baseline="text-before-edge" font-family="Virgil, Segoe UI Emoji" font-size="36" text-anchor="start" style="white-space:pre" transform="translate(902 218) rotate(0 71.08196258544922 21.599999999999998)">lvreduce</text></g><g stroke-linecap="round"><g><path fill="none" stroke="#000" stroke-width="4" d="M0.72 0.68 C0.7 130.23, 0.87 647.81, 0.69 777.43 M-0.36 -0.01 C-0.55 129.68, 0.27 649.29, 0.11 778.66" transform="translate(350 164) rotate(0 0.19152158999349922 389.32556671208704)"/></g></g><g stroke-linecap="round"><g><path fill="none" stroke="#000" stroke-width="4" d="M0.83 -0.45 C0.7 129.73, -0.27 649.86, -0.41 779.94 M-0.19 -1.73 C-0.54 128.22, -1.47 648.32, -1.58 778.31" transform="translate(770 167) rotate(0 -0.37344720992723524 389.1034549191175)"/></g></g><g><text x="0" y="0" fill="#000" direction="ltr" dominant-baseline="text-before-edge" font-family="Virgil, Segoe UI Emoji" font-size="36" text-anchor="start" style="white-space:pre" transform="translate(122 370) rotate(0 432.3599548339844 21.599999999999994)">ext3 Yes yes</text></g><g><text x="0" y="0" fill="#000" direction="ltr" dominant-baseline="text-before-edge" font-family="Virgil, Segoe UI Emoji" font-size="36" text-anchor="start" style="white-space:pre" transform="translate(121 507) rotate(0 431.6219482421875 21.599999999999994)">ext4 Yes yes</text></g><g><text x="0" y="0" fill="#000" direction="ltr" dominant-baseline="text-before-edge" font-family="Virgil, Segoe UI Emoji" font-size="36" text-anchor="start" style="white-space:pre" transform="translate(122 630) rotate(0 421.1099548339844 21.599999999999994)">xfs Yes No</text></g><g><text x="0" y="0" fill="#000" direction="ltr" dominant-baseline="text-before-edge" font-family="Virgil, Segoe UI Emoji" font-size="36" text-anchor="start" style="white-space:pre" transform="translate(124 744) rotate(0 422.1539611816406 21.600000000000023)">vFAT No No</text></g><g><text x="0" y="0" fill="#000" direction="ltr" dominant-baseline="text-before-edge" font-family="Virgil, Segoe UI Emoji" font-size="48" text-anchor="start" style="white-space:pre" transform="translate(36 10) rotate(0 378.31195068359375 57.599999999999994)">File system compatibility</text><text x="0" y="57.6" fill="#000" direction="ltr" dominant-baseline="text-before-edge" font-family="Virgil, Segoe UI Emoji" font-size="48" text-anchor="start" style="white-space:pre" transform="translate(36 10) rotate(0 378.31195068359375 57.599999999999994)">with Shrink and expand of size:</text></g></svg>