<svg version="1.1" xmlns="http://www.w3.org/2000/svg" viewBox="0 0 1955 2065" width="3910" height="4130">
  <!-- svg-source:excalidraw -->
  
  <defs>
    <style class="style-fonts">
      @font-face {
        font-family: "Virgil";
        src: url("https://excalidraw.com/Virgil.woff2");
      }
      @font-face {
        font-family: "Cascadia";
        src: url("https://excalidraw.com/Cascadia.woff2");
      }
    </style>
  </defs>
  <rect x="0" y="0" width="1955" height="2065" fill="#ffffff"></rect><g stroke-linecap="round" transform="translate(397.78260869565383 338.1105590062116) rotate(0 107.2173913043473 156.84372670807375)"><path d="M1.05 -1.64 C54.58 -1.41, 111.01 -1.98, 214.43 1.35 M-0.71 0.05 C55.13 1.09, 109.89 1.38, 214.25 0.68 M213.76 -1.01 C215.51 88.59, 212.8 178.48, 215.38 314.76 M214.16 -0.3 C215.77 121.23, 216.68 243.84, 213.9 314.31 M215.53 312.46 C149.48 312.66, 82.06 311.37, -1.46 313.39 M214 314.15 C158.93 314.55, 103.02 312.87, 0.86 314.3 M0.93 312.39 C-0.58 246.84, -1.63 180.22, -1.41 0.19 M0.48 313.62 C1.58 233.11, 1.38 150.83, -0.23 -0.39" stroke="#000000" stroke-width="1" fill="none"></path></g><g stroke-linecap="round" transform="translate(407.58534161490934 358.9413664596268) rotate(0 93.73863354037223 94.96397515527906)"><path d="M15.65 41.43 C15.65 41.43, 15.65 41.43, 15.65 41.43 M15.65 41.43 C15.65 41.43, 15.65 41.43, 15.65 41.43 M10.64 53.51 C18.36 41.53, 28.06 32.19, 43.73 17.12 M12.08 51.51 C22.11 39.57, 34.03 27.29, 43.22 16.22 M7.77 63.81 C21.85 46.85, 33.18 32.4, 49.06 11.81 M6.98 64.22 C21.12 47.98, 36.15 31.49, 50.26 13.75 M3.09 74.16 C16.54 58.1, 34.14 38.48, 60.41 11.54 M2.99 73.64 C14.9 60.89, 25.73 48.58, 59.82 10.95 M6.44 76.07 C24.72 57.19, 44.07 33.92, 65.65 5.12 M4.78 78.36 C23.14 59.22, 38.88 40.5, 67.09 5.86 M6.57 84.79 C26.1 58.83, 45.32 35.69, 75.14 2.95 M5.31 84.94 C23.68 62.67, 43.9 41.88, 75.39 2.09 M5.82 88.33 C30.3 64.41, 50.36 39.2, 81.62 2.09 M4.83 88.66 C27.33 66.58, 47.1 41.75, 80.32 3.61 M5.57 96.59 C30.28 68.79, 53.85 37.93, 85.14 3.13 M4.56 96.38 C25.31 71.1, 47.68 45.96, 86.98 3.38 M3.34 103.33 C38.82 63.87, 72.46 23.81, 92.52 1.08 M5.96 102.29 C24.68 80.55, 42.82 58.78, 91.64 1.99 M5.27 109.91 C40.17 68.03, 71.27 29.72, 96.31 1.02 M5.57 107.41 C25.92 84.15, 47.68 58.93, 96.97 3.06 M6.01 113.81 C26.36 91.21, 46.29 66.58, 104.09 1.68 M5.1 115.81 C33.74 81.6, 60.34 50.7, 101.59 2.57 M7.77 120.34 C29.58 91.75, 53.26 65.94, 106.21 2.86 M6.74 120.13 C39.36 82.73, 72.11 44.28, 108.03 2.04 M5.69 123.22 C35.06 92.27, 63.7 62.99, 113.69 0.23 M6.73 123.85 C48.99 75.73, 89.39 26.33, 112.92 1.07 M10.11 128.49 C46.37 85.24, 87.86 39.27, 117.37 2.12 M7.99 129 C51.78 79.74, 94.27 30.7, 116.39 3.87 M10.58 131.57 C44.11 95.21, 74.22 55.72, 120.34 4.13 M10.27 132.96 C50.44 85.49, 89.32 41.04, 120.7 5.64 M12.92 135.72 C39.8 102.61, 69.4 71.98, 123.88 8.54 M11.51 136.66 C36.68 110.1, 59.85 81.85, 124.49 7.72 M13.11 142.32 C38.74 108.89, 66.69 82.06, 127.88 6.95 M13.99 140.58 C48.85 101.2, 83 61.94, 129.42 7.98 M15.75 144.38 C53.75 94.83, 97.46 50.43, 130.72 8.85 M15.01 144.07 C46.11 109.79, 79.28 72.24, 132.29 11.12 M16.61 147.98 C61.82 96.55, 111.28 41.68, 137.07 13.55 M17.69 148.49 C50.7 114.16, 82.37 77.11, 137.12 12.42 M21.72 153.08 C61.73 102.09, 105.9 53.38, 141.78 14.76 M20.37 151.83 C64.49 101.88, 109.93 50.16, 141.27 13.99 M24.63 156.5 C54.99 121.73, 81.2 86.44, 144.31 13.53 M22.03 155.35 C47.54 126.43, 73.16 96.36, 144.12 15.47 M24.85 157.41 C61.04 121.09, 90.7 85.26, 148.59 18.77 M25.03 156.92 C52.87 127.92, 78.94 97.53, 147.18 16.36 M27.69 161.37 C65.95 112.08, 105.79 66.69, 148.9 21.51 M29.23 160.7 C76.52 105.34, 125.57 50.03, 150.23 19.98 M29.46 163.26 C73.27 115.52, 113.47 66.55, 152.92 23.11 M31.36 163.95 C58.53 131.24, 85.47 99.04, 152.63 23.43 M34.57 165.83 C65.22 129.5, 96.25 92.34, 154.36 27.58 M34.42 167.22 C59.4 138.05, 84.98 109.9, 156.15 25.67 M38.09 169.7 C82.74 119.89, 127.78 64.72, 158.06 28.01 M36.52 168.15 C78.74 122.46, 121.49 72.77, 158.39 29.71 M38.9 171.85 C85.87 121.51, 128.32 68.66, 160.48 33.86 M40.22 171.69 C80.07 125.53, 119.13 79.55, 161.46 31.64 M41.52 175.87 C65.36 143.79, 89.74 117.78, 163.6 33.7 M42.61 174.13 C67.94 144.02, 95.16 112.83, 164.14 35.12 M47.27 176.67 C72.95 147.74, 99.99 115.63, 166.64 38.69 M46.79 175.54 C91.08 123.27, 136.75 72.49, 167.92 38.62 M50.79 176.34 C96.2 124.5, 141.09 72.47, 172.02 41.39 M50.55 177.34 C98.62 122.93, 146.8 67.27, 171.09 39.95 M52.51 179.27 C90.57 134.88, 131.41 93.04, 173.79 42.93 M55.19 179.28 C83.17 145.68, 113.25 112.92, 171.53 43.22 M56.53 182.49 C93.7 140.64, 132.64 95.44, 172.79 49.84 M57.53 181.42 C101.25 131.38, 143.19 82.56, 174.05 47.38 M61.05 185.12 C91.55 151.86, 121.58 117.39, 175.16 51.45 M62.7 183.36 C107.35 132.54, 152.23 79.48, 175.18 51.42 M64.94 185.92 C104.54 138.67, 146.66 93.82, 177.54 55.01 M64.89 185.57 C100.04 146.2, 136.13 105.47, 176.62 57.19 M70.21 188.72 C98.17 152.57, 129.69 118.87, 178.85 61.59 M68.11 186.56 C106.08 142.21, 143.77 99.84, 179.25 59.07 M72.5 187.98 C104.14 151.44, 138.24 114.05, 180.18 62.64 M72.9 188.17 C106.51 149.16, 140.82 109.35, 181.3 64.29 M75.59 190.28 C111.09 154.24, 143.05 115.1, 183.24 68.96 M77.11 190.8 C114.25 148.91, 151.9 103.72, 183.02 67.64 M83.87 189.53 C104.78 163.49, 131.05 137.77, 186.22 71.21 M82.62 190.42 C102.63 164.54, 124.07 141.89, 184.82 71.73 M86.94 191.27 C108.52 162.62, 131.12 137.29, 186.29 77.42 M88.18 190.59 C125.72 145.86, 163.14 101.56, 186 76.25 M91.35 192.16 C121.15 156.77, 154.71 123.35, 187.43 80.96 M93.4 189.68 C121.18 157.98, 148.31 127.09, 186.81 81.69 M99.76 188.7 C125.18 155.97, 155.06 122.33, 186.24 90.83 M98.16 189.37 C128.67 156.04, 157.34 123.23, 186.58 89.38 M105.5 191.24 C124.32 165.65, 145.18 143.17, 187.14 96.37 M103.43 190.43 C122.2 168.85, 139.88 148.38, 185.07 95.95 M111.01 189.02 C128.67 166.34, 147.78 144.3, 188.17 101.53 M109.97 187.42 C139.54 157.14, 167.05 124.69, 186.62 101.37 M119.05 183.35 C145.95 155.37, 169.49 124.59, 185.56 108.65 M119.76 183.76 C141.39 157.35, 164.42 132.61, 186.89 108.42 M127.23 181.2 C144.95 161.25, 158 146.24, 184.14 115.39 M126.77 180.9 C140.63 166.56, 152.38 153.87, 185.58 113.45 M136.43 178.38 C151.92 156.14, 173.37 135.81, 188.49 115.52 M135.7 177.41 C151.03 159.49, 168.07 142.58, 189.81 116.87 M142.66 175.52 C159.49 158.5, 171.73 140.05, 183.78 128.77 M144 174.63 C153.54 162.07, 163.78 150.4, 183.15 128.74" stroke="#868e96" stroke-width="0.5" fill="none"></path><path d="M74.88 1.74 C85.99 -2.01, 101.37 -0.86, 113.2 1.46 C125.03 3.78, 136.22 8.81, 145.87 15.67 C155.52 22.53, 164.37 32.41, 171.1 42.61 C177.82 52.81, 183.72 64.93, 186.23 76.87 C188.73 88.81, 188.62 102.27, 186.13 114.26 C183.63 126.26, 178.04 138.88, 171.24 148.84 C164.43 158.8, 155.38 167.56, 145.32 174.04 C135.26 180.52, 122.71 185.22, 110.88 187.71 C99.05 190.19, 86 191.45, 74.34 188.95 C62.68 186.45, 50.72 179.54, 40.95 172.72 C31.18 165.9, 22.16 157.83, 15.74 148.04 C9.33 138.25, 4.63 126.11, 2.48 113.96 C0.32 101.82, 0.6 87.26, 2.79 75.17 C4.98 63.08, 9.26 51.46, 15.64 41.44 C22.01 31.42, 30.58 21.66, 41.04 15.05 C51.5 8.45, 71.94 3.7, 78.41 1.82 C84.88 -0.07, 79.64 2.28, 79.87 3.73 M62.99 5.88 C73.05 0.62, 86.59 -1.25, 98.14 -0.77 C109.69 -0.29, 121.61 3.69, 132.32 8.74 C143.03 13.8, 154.13 20.71, 162.39 29.58 C170.66 38.45, 177.61 50.35, 181.91 61.97 C186.21 73.58, 188.49 87.2, 188.18 99.3 C187.87 111.39, 185.51 123.3, 180.06 134.52 C174.61 145.74, 164.39 158.53, 155.49 166.61 C146.58 174.69, 137.58 179.12, 126.62 183.01 C115.67 186.9, 101.7 190.53, 89.75 189.95 C77.79 189.38, 65.78 184.63, 54.89 179.56 C43.99 174.49, 32.79 168.02, 24.37 159.53 C15.96 151.05, 8.67 140.1, 4.38 128.64 C0.08 117.18, -2.04 103.24, -1.39 90.79 C-0.74 78.33, 3.16 64.75, 8.26 53.92 C13.37 43.08, 20.33 33.65, 29.24 25.79 C38.16 17.94, 56.02 9.73, 61.77 6.79 C67.51 3.85, 63.36 6.94, 63.71 8.15" stroke="#000000" stroke-width="1" fill="none"></path></g><g transform="translate(525.5405949656742 611.4230062111783) rotate(0 30.80083465576172 17.40000000000009)"><text x="0" y="0" font-family="Helvetica, Segoe UI Emoji" font-size="29.170610003268813px" fill="#000000" text-anchor="start" style="white-space: pre;" direction="ltr" dominant-baseline="text-before-edge">1 TB</text></g><g stroke-linecap="round" transform="translate(787.7826086956538 332.1105590062116) rotate(0 107.2173913043473 156.84372670807375)"><path d="M-1.17 -0.05 C45.51 2.16, 91.32 -0.35, 215.3 0.19 M-0.53 0.07 C44.27 1.79, 89.44 1.06, 214.01 -0.72 M213.38 1.32 C212.04 101.64, 212.24 204.16, 213.25 313.28 M214.57 0.19 C214.2 83.93, 214.19 169.7, 214.22 313.7 M215.04 312.78 C162.75 312.5, 113.5 314.5, 0.67 315.25 M213.81 313.74 C141.07 313.14, 66.8 314.18, -0.52 313.63 M0.9 313.31 C1.78 225.51, 0.99 139.37, 0.94 0.19 M0.25 313.12 C-0.82 234.03, -0.35 154.97, -0.4 0.49" stroke="#000000" stroke-width="1" fill="none"></path></g><g stroke-linecap="round" transform="translate(797.5853416149093 352.9413664596268) rotate(0 93.73863354037223 94.96397515527906)"><path d="M26.3 29.48 C26.3 29.48, 26.3 29.48, 26.3 29.48 M26.3 29.48 C26.3 29.48, 26.3 29.48, 26.3 29.48 M13.95 51.12 C19.31 45.7, 26.74 36.2, 43.61 15.85 M11.33 51.12 C21.13 42.13, 28.83 34.36, 40.94 18.01 M8.94 61.79 C19.76 47.97, 35.2 30.09, 58.46 8.74 M7.66 63.42 C19.14 49.03, 30.51 36.16, 57.11 7.76 M4.78 71.21 C22.59 51.1, 38.33 33.27, 64.5 3.87 M7.44 70.01 C27.77 44.52, 49.66 21.03, 63.03 6 M3.34 77.49 C21.72 57.78, 44.09 34.49, 68.52 3.03 M4.42 79.15 C30.14 50.83, 53.52 24.92, 69.11 3.57 M4.91 84.12 C26.62 57.24, 54.83 26.36, 74.4 4.44 M3.42 85.44 C26.15 61.5, 47.58 36.85, 75.78 2.43 M-1.19 98.45 C30 60.61, 61.43 23.01, 82.19 2.39 M-0.74 96.04 C22.05 71.06, 43.37 46.48, 82.75 3.12 M-1.02 101.61 C25.6 71.55, 48.69 43.77, 86.56 0.84 M0.51 102.36 C27.03 73.55, 51.1 44.62, 87.82 1.99 M0.23 108.2 C35.65 65.09, 71.42 27.56, 93.34 1.06 M2.01 105.48 C37.06 66.27, 71.88 26.32, 91.61 2.72 M3.74 109.88 C30.38 79.24, 54.88 50.95, 96.64 3.7 M2.66 111.51 C36.82 72.03, 71.05 32.01, 96.87 2.04 M2.34 114.91 C25.73 91.55, 47.84 68.76, 101.37 3.26 M4.93 116.88 C33.42 80.52, 62.25 47.6, 101.41 2.02 M7.01 121.69 C25.66 94.28, 47.02 72.26, 105.13 5.86 M5.56 121.6 C32.18 90.31, 61.47 57.43, 106.08 3.54 M5.35 124.19 C38.84 91.3, 67.31 51.79, 110.61 4.47 M6.38 126.48 C37.52 89.86, 70.69 53.69, 111.48 5.31 M8.12 129.52 C33.57 101.16, 60.79 70.15, 115.5 5.67 M7 130.42 C33.83 99.78, 59.92 69.03, 116.18 6.35 M9.03 133.87 C49.91 89.49, 86.22 46.53, 120.29 5.16 M8.92 134.12 C52.13 84.71, 93.57 36.22, 120.64 5.25 M11.29 136.58 C37.2 109.22, 60.82 80.82, 126.11 6.49 M12.29 137.87 C39.45 105.89, 68.04 74, 125.44 6.69 M14.09 141.07 C53.25 93.66, 94.52 47.13, 131.24 8.33 M14.66 140.28 C43.86 108.06, 71.28 76.29, 129.94 6.39 M17.72 145.88 C49.85 106.67, 80.93 67.71, 133.62 9.94 M16.36 145.01 C54.17 99.79, 93.22 54.98, 133.08 10.43 M18.16 146.15 C61.88 93.82, 107.06 42.52, 135.93 13.7 M19.29 148.06 C59.58 103.52, 96.71 59.33, 136.69 11.41 M21.5 151.13 C50.72 116.37, 81.81 81.14, 138.22 13.36 M21.64 151 C53.97 112.11, 86.54 74.32, 140.42 14.55 M22.46 153.71 C47.75 124.37, 74.4 94.51, 142.31 16.76 M24.66 154.2 C65.8 104.71, 109.15 55.61, 144.32 16.09 M26.94 155.84 C53.97 123.9, 84.22 88.13, 145.68 16.6 M25.42 158.13 C71.93 103.89, 118.24 49.66, 147.03 17.87 M26.45 162.11 C67.46 118.29, 108.88 70.17, 149.96 21.72 M27.52 160.56 C75.24 108.83, 121.17 54.66, 150.5 20.33 M32.65 165.21 C59.86 129.62, 89.48 98.03, 153.39 24.28 M29.89 163.83 C63.33 128.24, 95.66 92.3, 154.7 23.41 M32.49 166.7 C62.42 137.92, 89.98 108.07, 156.72 26.57 M34.14 167.35 C78.31 115.99, 124.32 63.21, 157.78 25.17 M37.41 167.98 C83.44 120.52, 124.42 70.47, 158.97 28.49 M38.06 168.36 C62.85 138.09, 87.85 110.08, 160.08 26.99 M41.84 171.83 C81.5 121.09, 124.03 74.75, 162.01 31.8 M40.32 171.17 C86.22 116.78, 132.27 65.18, 162.94 29.55 M42.34 175.13 C87.07 125.38, 124.71 79.13, 163.65 34.11 M43.9 173.65 C77.61 137.36, 110.06 99.21, 166.07 34.61 M46.09 176.11 C72.17 143.95, 97.32 114.36, 166.85 36.39 M48.81 176.26 C72.87 147.03, 97.93 118.16, 166.97 38.26 M53.44 176.39 C81.19 139.97, 114.37 102.99, 170.2 39.97 M50.87 177.76 C94.66 126.52, 140.07 75.57, 169.71 41.63 M54.36 180.16 C84.5 145.19, 111.03 112.98, 170.44 44.55 M54.49 180.23 C94.32 133.98, 133.99 88.74, 171.67 44.7 M56.96 181.5 C93.14 145.55, 124.64 106.63, 175.64 46.69 M57.32 182.09 C102.68 130.32, 148.41 79.55, 174.95 48.5 M62 182.33 C99.27 138.87, 137.61 97.09, 174.97 50.03 M61.14 183.8 C84.75 156.63, 108.63 129.48, 176.44 51.15 M64.71 186.18 C93.01 156.78, 118.89 128.41, 176.62 55.61 M65.79 185.42 C95.35 149.82, 124.93 115.64, 177.94 55.84 M70.63 186.7 C95.7 156.39, 120.33 127.82, 180.86 60.3 M71.4 186.82 C105.79 144.33, 140.13 104.97, 181.54 59.06 M76.77 186.15 C97.57 157.96, 121.7 132.7, 181.34 64.35 M75.7 185.93 C107.94 150.13, 141.14 112.94, 181.07 63.88 M78.8 188.65 C103.25 161.87, 124.6 134.75, 182.12 69.36 M79.49 187.77 C110.6 149.94, 143.94 115.15, 183.47 69.7 M86.16 188.41 C111.53 155.74, 139.62 126.21, 183.6 73.02 M84.03 188.41 C111.55 156.66, 139.25 126.21, 184.91 74.73 M87.31 189.28 C113.13 159.22, 141.54 128.72, 186.32 77.17 M88.49 188.26 C118.76 153.44, 151.23 118.79, 184.88 77.75 M92.81 188.95 C117.97 159.08, 143 130.15, 185.43 85.22 M93.32 190.03 C120.02 158.58, 146.8 128.21, 186.9 83.35 M99.21 191.46 C115.63 172.34, 135.95 147.33, 185.27 87.71 M98.36 191.02 C117.6 167.81, 138.77 142.34, 187.31 89.23 M102.17 189.72 C124.31 167.69, 143.48 142.19, 189.13 92.54 M104.23 189.32 C136.09 154.86, 166.22 119.33, 187.36 94.11 M109.71 189 C139.13 155.65, 167.97 127.29, 185.79 102.48 M111.84 187.12 C125.45 171.22, 141.89 153.8, 185.92 101.08 M115.99 188.69 C131.65 169.65, 149.77 151.87, 184.61 107.38 M118.36 186.18 C134.3 168.35, 149.69 149.18, 184.88 109.5 M121.77 185.54 C145.98 160.7, 166.46 136.27, 182.17 118.71 M124.03 184.83 C142.53 164.3, 161.9 140.99, 183.97 117.34 M132.93 183.12 C152.22 159.78, 171.69 137.16, 182.63 124.31 M132.85 181.17 C149.89 162.12, 166.53 142.68, 181.48 125.61 M144.99 171.61 C156.23 156.77, 170.03 145.61, 183.62 130.61 M147.35 170.66 C161.01 156.55, 174.16 140.05, 182.27 130.4" stroke="#868e96" stroke-width="0.5" fill="none"></path><path d="M91.17 0.51 C102.4 -1.35, 116.69 1.41, 127.99 5.62 C139.29 9.83, 150.47 17.21, 158.97 25.77 C167.48 34.32, 174.39 45.66, 179.01 56.96 C183.62 68.26, 186.43 81.52, 186.67 93.56 C186.92 105.6, 184.8 118.14, 180.49 129.21 C176.19 140.27, 169 151.26, 160.85 159.94 C152.7 168.61, 142.51 176.39, 131.59 181.27 C120.67 186.14, 107.18 188.91, 95.34 189.17 C83.49 189.42, 71.7 187.17, 60.53 182.81 C49.36 178.44, 37.15 171.41, 28.32 162.98 C19.49 154.55, 12.32 143.29, 7.55 132.21 C2.79 121.14, -0.07 108.4, -0.27 96.55 C-0.48 84.7, 1.89 72.29, 6.33 61.1 C10.76 49.92, 18.03 38.45, 26.33 29.44 C34.64 20.42, 44.34 11.8, 56.17 7.02 C68 2.24, 89.62 1.54, 97.29 0.76 C104.96 -0.02, 102.37 1, 102.2 2.34 M75.56 1.12 C86.31 -2.05, 100.92 0.56, 112.92 3.4 C124.92 6.24, 137.54 11.23, 147.58 18.15 C157.61 25.07, 166.76 35.14, 173.13 44.91 C179.51 54.68, 183.77 64.98, 185.82 76.79 C187.88 88.61, 188.08 103.73, 185.47 115.78 C182.87 127.84, 176.82 139.45, 170.19 149.13 C163.57 158.8, 155.67 167.34, 145.73 173.83 C135.78 180.32, 122.57 185.64, 110.52 188.06 C98.47 190.49, 84.96 190.95, 73.44 188.39 C61.93 185.83, 51.01 179.8, 41.42 172.71 C31.84 165.63, 22.57 155.84, 15.94 145.87 C9.3 135.91, 3.77 124.71, 1.63 112.94 C-0.51 101.16, 0.71 87.19, 3.08 75.22 C5.46 63.24, 9.4 51, 15.9 41.08 C22.4 31.17, 32.1 22.58, 42.06 15.74 C52.02 8.91, 69.9 2.21, 75.67 0.07 C81.44 -2.07, 76.16 1.26, 76.67 2.93" stroke="#000000" stroke-width="1" fill="none"></path></g><g transform="translate(915.5405949656742 605.4230062111783) rotate(0 30.80083465576172 17.40000000000009)"><text x="0" y="0" font-family="Helvetica, Segoe UI Emoji" font-size="29.170610003268813px" fill="#000000" text-anchor="start" style="white-space: pre;" direction="ltr" dominant-baseline="text-before-edge">1 TB</text></g><g stroke-linecap="round" transform="translate(1158.782608695652 337.1105590062116) rotate(0 107.2173913043473 156.84372670807375)"><path d="M-0.74 1.16 C57.54 -0.72, 114.17 -0.09, 213.63 0.24 M0.04 0.36 C48.04 -1.34, 96.33 -1.32, 214.48 0.53 M215.65 1.34 C213.82 97.73, 213.3 197.33, 215.54 313.65 M214.87 -0.03 C213.86 67.43, 214.25 135.91, 214.27 313.82 M214.72 313.15 C149.45 312.16, 87.62 311.15, -1.3 313.53 M213.97 314.26 C167.04 312.7, 118.78 312.34, -0.33 313.9 M-0.53 314.28 C-0.84 217.38, 1.89 123.61, 0.86 1.2 M0.46 313.94 C1.67 228.93, 2.17 144.86, -0.11 -0.26" stroke="#000000" stroke-width="1" fill="none"></path></g><g stroke-linecap="round" transform="translate(1168.5853416149075 357.9413664596268) rotate(0 93.73863354037223 94.96397515527906)"><path d="M30.64 25.31 C30.64 25.31, 30.64 25.31, 30.64 25.31 M30.64 25.31 C30.64 25.31, 30.64 25.31, 30.64 25.31 M8.34 54.48 C15.87 44.9, 24.45 38.8, 45.4 16.43 M10.08 55.51 C16.15 46.91, 23.72 38.12, 43.92 16.32 M7.92 64.13 C26.3 42.57, 44.89 20.59, 57.35 9.68 M6.59 65.2 C21.79 48.2, 36.47 33.17, 55.4 7.02 M5.75 73.46 C21.05 53.22, 37.75 36.58, 61.13 7.25 M6.32 71.44 C27.62 47.52, 50.21 22.05, 62.2 7.6 M3.82 81.27 C16.35 65.94, 33.61 47.49, 70.37 5.41 M2.43 80.4 C23.36 58.58, 42.15 36.24, 69.83 5.57 M-1.43 91.98 C23.9 60.62, 50.22 34.89, 75.78 4.53 M0.18 89.8 C17.89 72.31, 32.67 55.71, 74.82 4.29 M2.01 98.08 C17.11 77.77, 36.88 56.23, 81.55 3.88 M0.35 95.18 C27.25 65.49, 54.42 33.57, 81.33 3.46 M1.74 101.71 C32.71 62.42, 68.76 24.84, 86.47 4.08 M1.45 101.19 C30.17 68.47, 57.49 36.27, 86.54 3.33 M3.97 106.38 C26.12 78.24, 51.99 49.5, 94.53 1.08 M3.01 105.02 C36.26 66.54, 68.6 29.53, 93.5 2.47 M2.04 112.69 C29.94 79.4, 61.74 45, 99.32 1.49 M2.38 111.95 C30.22 79.04, 56.69 48.32, 99.77 0.81 M4.91 117.58 C42.97 70.28, 82.69 27.66, 102.61 4 M5.4 116.31 C34.14 84.21, 62.91 50.57, 104.25 2.8 M3.05 121.13 C28.48 94.5, 50.09 70.7, 106.75 2.66 M4.64 122 C37.62 84.17, 70.82 46.95, 107.84 4.49 M4.19 126.01 C36.14 93.29, 67.61 58.61, 113.93 4.12 M5.3 127.76 C39.82 86.11, 72.78 47.81, 112.94 4.48 M8.56 130.76 C49.75 80.39, 95.32 32.49, 117.99 7.66 M8.75 130.11 C29.76 103.55, 52.35 79.24, 115.52 5.7 M9.4 133.53 C45.21 94.1, 81.53 50.36, 119.55 5.9 M9.31 134.96 C49.98 86.6, 92.45 40.04, 120.47 5.9 M13.36 138.82 C48.99 92.8, 88.47 51.77, 125.92 5.34 M12.84 137.96 C37.5 107.74, 62.38 78.04, 125.82 7.91 M13.78 140.99 C59.01 87.85, 101.77 37.45, 129.49 7.33 M14.33 141.9 C47.23 102.31, 82.23 64, 129.33 8.36 M15.77 142.78 C46.39 108.7, 76.23 77.81, 135.67 8.57 M17.2 144.85 C60.6 95.47, 103.55 46.08, 134.68 9.98 M17.46 150.27 C43.54 122.98, 66.88 94.12, 136.67 11.39 M18.79 148.95 C44.86 117.44, 72.02 87.81, 137.54 11.55 M23.07 151.39 C49.83 118.74, 79.83 84.12, 142.64 15.96 M21.7 152.68 C61.51 105.12, 101.99 58.3, 140.91 13.91 M21.48 153.96 C49.88 123.78, 76.98 89.84, 145.58 17.32 M22.62 154.58 C49.32 125.86, 76.02 95.5, 143.31 16.74 M26.73 160.88 C63.68 118.12, 100.22 75.43, 147.1 20.86 M25.04 160.26 C66.1 110.85, 109.16 62.44, 146.79 19.78 M27.12 160.66 C51.61 134.51, 79.56 105.72, 150.3 22.84 M28.65 162.64 C61.71 125.95, 92.94 89.23, 151.06 21.1 M30.47 162.95 C69.3 122.56, 104.26 78.34, 154.91 23.12 M32.79 163.23 C71.77 119.15, 111.63 72.24, 152.86 23.58 M36.57 165.73 C76.43 120.53, 117.77 73.71, 155.82 26.68 M35.21 167.1 C64.76 133.75, 91.53 100.17, 156.76 26.17 M38.34 169.86 C64.58 137.34, 91.49 111.08, 157.53 29.1 M37.46 169.15 C76.67 123.85, 116 77.09, 159.86 29.14 M42.32 170.78 C82.22 125.36, 123.67 78.47, 161.37 33.31 M41.59 171.58 C82.22 124.8, 122.54 80.16, 163.24 32.6 M45.23 174.33 C77.76 139.11, 109.17 100.79, 164.02 35.65 M45.03 173.43 C79.98 134.7, 113.61 94.56, 164.74 36.22 M48.41 177.67 C93.39 122.89, 137.54 68.63, 168.52 37.5 M47.23 177.3 C78.3 139.69, 110.62 101.71, 166.27 38.72 M50.32 177.09 C101.23 124.38, 147.11 69.77, 170.32 40.63 M50.42 178.86 C84.7 139.6, 118.04 101.7, 169.99 42.9 M55.11 179.74 C99.53 130.37, 140.6 77.86, 171.62 44.18 M54.44 180.37 C85 147.54, 115.7 110.89, 171.06 46.41 M59.03 184.63 C86.75 150.1, 114.55 114.07, 175.3 50.89 M57.39 183.38 C91.27 143.19, 125.83 102.42, 173.64 49.67 M63.63 185.61 C95.53 146.93, 125.42 114.19, 174.69 53.36 M61.09 185.51 C92.19 151.99, 119.79 117.43, 175.1 53.98 M66.98 184.66 C101.7 143.77, 139.25 101.95, 178.76 56.54 M66.52 185.48 C92.41 157.04, 116.52 128.45, 177.27 57.64 M70.09 188.87 C104.43 146.15, 141.94 101.85, 178.63 59.76 M70.56 187.82 C102.59 150.16, 133.44 114.76, 181.38 59.82 M74.13 189.43 C97.78 163.06, 121.53 135.21, 184.72 63.18 M75.37 187.62 C101.3 157.34, 127.98 126.63, 183.31 62.76 M78.88 191.14 C111.6 156.26, 139.52 119.5, 183.3 67.62 M79.17 189.79 C112.78 150.31, 146.57 111.57, 184.48 69.26 M81.3 189.91 C102.23 164.73, 125.16 139.35, 186.21 72.2 M82.99 190.32 C114.33 154.31, 143.75 120.73, 183.81 74.18 M85.95 190.27 C126.38 149.31, 160.99 104.08, 184.12 77.42 M87.4 191.52 C110.52 164.72, 134.4 137.64, 185.18 79.2 M92.23 190.08 C119.96 163.67, 148.52 130.43, 185.7 86.41 M91.96 192.51 C112.46 168.95, 131.09 146.87, 184.91 83.85 M100.15 190.85 C130.42 158.18, 156.71 122.07, 185.4 88.38 M99.25 191.23 C116.66 169.21, 135.52 149.07, 187.75 88.68 M106.89 189.41 C129.28 160.14, 156.67 130.12, 188.66 94.18 M105.71 189.95 C130.76 161.01, 157.06 131.01, 186.36 94.62 M112.6 187.74 C137.13 158.06, 162.19 129.42, 187.72 99.74 M111.64 188.77 C138.48 157.88, 165.73 127.54, 187.36 100.11 M117.57 187.9 C133.42 168.57, 148.59 151.36, 184.17 108.64 M118.64 186.33 C135.7 165.62, 155.65 144.41, 186.15 109.49 M124.71 185.57 C140.97 165.99, 159.38 147.19, 184.66 118.51 M124.37 185.13 C139.78 167.98, 153.25 151.68, 184.82 117.07 M128.79 185.04 C143.54 171.81, 158.55 153.21, 182.19 125.63 M129.99 186.21 C142.41 170.98, 153.76 156.18, 181.77 125.56 M140.72 181.4 C154.09 162.45, 168.04 148.71, 180.58 135.64 M140.72 179.14 C150.76 169.46, 159.88 157.02, 178.34 136.45" stroke="#868e96" stroke-width="0.5" fill="none"></path><path d="M97.08 -0.38 C108.66 -1.43, 122.48 2.77, 133.26 8.05 C144.05 13.33, 153.73 22.21, 161.82 31.31 C169.9 40.41, 177.58 51.41, 181.78 62.66 C185.98 73.91, 187.58 86.77, 186.99 98.8 C186.4 110.83, 183.22 123.73, 178.27 134.84 C173.32 145.94, 165.98 157.26, 157.3 165.42 C148.62 173.57, 137.28 179.56, 126.18 183.77 C115.08 187.99, 102.51 191.13, 90.69 190.7 C78.88 190.28, 66.4 186.51, 55.29 181.24 C44.19 175.96, 32.34 167.84, 24.05 159.04 C15.76 150.24, 9.57 139.92, 5.57 128.46 C1.57 116.99, -0.45 102.47, 0.05 90.24 C0.56 78.02, 3.47 65.97, 8.6 55.1 C13.73 44.24, 22.13 33.44, 30.84 25.08 C39.56 16.72, 48.27 9.03, 60.89 4.96 C73.51 0.89, 97.59 0.73, 106.58 0.67 C115.57 0.62, 115.04 3.16, 114.83 4.63 M63.22 4.68 C73.72 -0.48, 89.69 -1.76, 101.54 -0.91 C113.39 -0.06, 124.05 4.22, 134.33 9.78 C144.62 15.35, 155.33 23.47, 163.23 32.49 C171.13 41.52, 177.56 52.36, 181.73 63.91 C185.89 75.46, 188.88 89.72, 188.23 101.81 C187.59 113.9, 183.41 125.74, 177.85 136.44 C172.3 147.14, 163.87 157.89, 154.89 165.99 C145.91 174.09, 135.3 180.9, 123.98 185.06 C112.65 189.21, 99.03 191.66, 86.95 190.92 C74.86 190.18, 62.36 186.33, 51.47 180.63 C40.58 174.93, 29.12 165.73, 21.59 156.73 C14.06 147.72, 9.69 137.79, 6.28 126.62 C2.86 115.46, 0.62 102.28, 1.13 89.73 C1.64 77.18, 4.03 62.23, 9.33 51.34 C14.63 40.44, 23.75 32.22, 32.93 24.36 C42.11 16.5, 59.24 7.05, 64.4 4.17 C69.56 1.28, 63.44 5.43, 63.9 7.02" stroke="#000000" stroke-width="1" fill="none"></path></g><g transform="translate(1286.5405949656742 610.4230062111783) rotate(0 30.80083465576172 17.40000000000009)"><text x="0" y="0" font-family="Helvetica, Segoe UI Emoji" font-size="29.170610003268813px" fill="#000000" text-anchor="start" style="white-space: pre;" direction="ltr" dominant-baseline="text-before-edge">1 TB</text></g><g stroke-linecap="round"><g transform="translate(514.3478074401719 657.5677616753337) rotate(0 161.77182545778038 111.18519901681248)"><path d="M0.62 0.07 C54.47 37.14, 270.25 184.75, 324.06 222 M-0.52 -0.93 C53.1 36.33, 269.35 186.18, 323.19 223.31" stroke="#000000" stroke-width="4" fill="none"></path></g><g transform="translate(514.3478074401719 657.5677616753337) rotate(0 161.77182545778038 111.18519901681248)"><path d="M294.28 215.93 C304.45 217.71, 318.1 220.4, 323.09 225.23 M294.04 215.16 C301.72 216.88, 311.3 219.35, 323.29 223.07" stroke="#000000" stroke-width="4" fill="none"></path></g><g transform="translate(514.3478074401719 657.5677616753337) rotate(0 161.77182545778038 111.18519901681248)"><path d="M305.96 199.05 C311.63 207.31, 320.84 216.42, 323.09 225.23 M305.71 198.28 C310.07 204.9, 316.32 212.17, 323.29 223.07" stroke="#000000" stroke-width="4" fill="none"></path></g></g><mask></mask><g stroke-linecap="round" transform="translate(655.0000000000018 881) rotate(0 267 187)"><path d="M32 0 M32 0 C147.66 0.26, 262.35 0.01, 502 0 M32 0 C138.29 -1.7, 244.69 -1.34, 502 0 M502 0 C524.47 0.93, 532.48 10.95, 534 32 M502 0 C521.64 -1.29, 535.5 10.6, 534 32 M534 32 C531.05 113.57, 531.68 193.09, 534 342 M534 32 C533.51 107.04, 533.58 182.06, 534 342 M534 342 C535.78 363.79, 524.71 372.52, 502 374 M534 342 C532.72 361.09, 522.3 374.24, 502 374 M502 374 C320.16 375.22, 138.67 374.12, 32 374 M502 374 C341.62 372.99, 180.69 372.71, 32 374 M32 374 C10.09 375.17, 0.75 364.63, 0 342 M32 374 C12.32 375.24, -1.62 363.52, 0 342 M0 342 C-0.05 270.1, -1.6 195.77, 0 32 M0 342 C0.99 239.28, 0.07 138.22, 0 32 M0 32 C-1.74 12.18, 8.86 -1.64, 32 0 M0 32 C-0.34 9.02, 10.34 0.81, 32 0" stroke="#000000" stroke-width="4" fill="none"></path></g><g transform="translate(768.0160369873065 1010.4000000000001) rotate(0 153.9839630126953 57.60000000000002)"><text x="153.9839630126953" y="0" font-family="Virgil, Segoe UI Emoji" font-size="48px" fill="#000000" text-anchor="middle" style="white-space: pre;" direction="ltr" dominant-baseline="text-before-edge">Volume Group</text><text x="153.9839630126953" y="57.599999999999994" font-family="Virgil, Segoe UI Emoji" font-size="48px" fill="#000000" text-anchor="middle" style="white-space: pre;" direction="ltr" dominant-baseline="text-before-edge">( Data )</text></g><g stroke-linecap="round"><g transform="translate(889.367909995537 651) rotate(0 2.4941799633329538 110.60157012118952)"><path d="M-1.08 0.17 C-0.49 36.99, 2.78 184.01, 3.87 220.99 M0.55 -0.79 C1.48 36.14, 5.33 184.64, 6.07 221.99" stroke="#000000" stroke-width="4" fill="none"></path></g><g transform="translate(889.367909995537 651) rotate(0 2.4941799633329538 110.60157012118952)"><path d="M-4.56 192.43 C-2.95 204.28, 2.3 213.8, 6.1 223.75 M-5.52 194.21 C-1.82 199.77, -0.09 206.45, 5.9 222.74" stroke="#000000" stroke-width="4" fill="none"></path></g><g transform="translate(889.367909995537 651) rotate(0 2.4941799633329538 110.60157012118952)"><path d="M15.95 191.95 C10.86 203.78, 9.41 213.45, 6.1 223.75 M15 193.73 C14.14 199.51, 11.31 206.3, 5.9 222.74" stroke="#000000" stroke-width="4" fill="none"></path></g></g><mask></mask><g stroke-linecap="round"><g transform="translate(1219.0268087971199 652) rotate(0 -132.3605540492731 114.0433451817139)"><path d="M0.1 -1.11 C-43.93 36.7, -221.01 189.64, -264.82 227.78 M-1.31 0.92 C-44.92 38.83, -219.06 191.21, -262.68 229.2" stroke="#000000" stroke-width="4" fill="none"></path></g><g transform="translate(1219.0268087971199 652) rotate(0 -132.3605540492731 114.0433451817139)"><path d="M-250.05 201.12 C-251.9 210.98, -255.57 217.7, -262.53 231.14 M-248.02 203.69 C-251.87 211.94, -256.42 218.58, -262.79 229.49" stroke="#000000" stroke-width="4" fill="none"></path></g><g transform="translate(1219.0268087971199 652) rotate(0 -132.3605540492731 114.0433451817139)"><path d="M-236.55 216.58 C-241.82 222.67, -248.79 225.61, -262.53 231.14 M-234.52 219.15 C-242.69 222.41, -251.53 224.15, -262.79 229.49" stroke="#000000" stroke-width="4" fill="none"></path></g></g><mask></mask><g stroke-linecap="round" transform="translate(487.0000000000018 1353) rotate(0 183 176)"><path d="M206.84 0.63 C223.73 -0.18, 242.42 8.69, 258.26 15.5 C274.09 22.32, 288.88 30.89, 301.83 41.5 C314.77 52.1, 326.58 65.38, 335.92 79.13 C345.26 92.87, 352.87 107.96, 357.88 123.95 C362.9 139.95, 365.75 158.46, 366.01 175.09 C366.27 191.72, 364.12 207.96, 359.44 223.74 C354.76 239.52, 347.25 255.67, 337.96 269.77 C328.67 283.86, 316.56 297.21, 303.7 308.29 C290.83 319.36, 276.25 329.14, 260.76 336.21 C245.26 343.29, 227.83 348.47, 210.73 350.74 C193.63 353, 175.29 352.19, 158.17 349.8 C141.04 347.4, 123.53 342.88, 107.98 336.39 C92.43 329.89, 77.75 321.4, 64.89 310.83 C52.03 300.25, 40.24 286.72, 30.81 272.93 C21.38 259.13, 13.43 244.02, 8.33 228.06 C3.23 212.1, 0.44 193.73, 0.23 177.16 C0.02 160.6, 2.3 144.45, 7.08 128.68 C11.87 112.9, 19.94 96.63, 28.97 82.5 C37.99 68.37, 48.65 54.73, 61.23 43.89 C73.81 33.04, 88.92 24.23, 104.42 17.41 C119.91 10.6, 134.3 5.1, 154.21 2.97 C174.13 0.85, 210.01 3.22, 223.92 4.67 C237.82 6.11, 238.21 8.72, 237.64 11.64 M228.13 4.45 C244.62 5.44, 260.65 16.46, 275.32 24.81 C289.99 33.16, 304.13 42.63, 316.16 54.55 C328.2 66.47, 339.92 81.72, 347.51 96.33 C355.11 110.95, 358.77 125.86, 361.73 142.23 C364.68 158.6, 366.85 177.95, 365.25 194.55 C363.64 211.16, 358.76 226.64, 352.1 241.85 C345.44 257.05, 335.96 272.73, 325.28 285.79 C314.6 298.84, 302.06 310.67, 288.02 320.17 C273.98 329.68, 257.1 337.44, 241.04 342.81 C224.97 348.17, 208.67 351.47, 191.62 352.35 C174.57 353.24, 155.49 352.39, 138.71 348.11 C121.94 343.84, 105.96 335.28, 90.96 326.71 C75.97 318.14, 60.7 308.31, 48.74 296.69 C36.78 285.07, 26.6 271.7, 19.21 256.99 C11.82 242.28, 7.38 224.76, 4.43 208.42 C1.48 192.08, 0.27 175.18, 1.53 158.95 C2.79 142.72, 5.74 126.38, 11.98 111.07 C18.22 95.75, 27.82 80.35, 38.95 67.06 C50.09 53.77, 64.52 40.89, 78.78 31.33 C93.03 21.78, 108.38 14.96, 124.49 9.73 C140.59 4.49, 158.52 0.56, 175.43 -0.06 C192.35 -0.69, 217.54 4.75, 225.99 5.98 C234.44 7.21, 226.73 4.85, 226.11 7.33" stroke="#000000" stroke-width="4" fill="none"></path></g><g transform="translate(574.4114860204027 1442.6492065111677) rotate(0 95.68797302246094 86.39999999999998)"><text x="95.68797302246094" y="0" font-family="Virgil, Segoe UI Emoji" font-size="48px" fill="#000000" text-anchor="middle" style="white-space: pre;" direction="ltr" dominant-baseline="text-before-edge">Base </text><text x="95.68797302246094" y="57.599999999999994" font-family="Virgil, Segoe UI Emoji" font-size="48px" fill="#000000" text-anchor="middle" style="white-space: pre;" direction="ltr" dominant-baseline="text-before-edge">500MB </text><text x="95.68797302246094" y="115.19999999999999" font-family="Virgil, Segoe UI Emoji" font-size="48px" fill="#000000" text-anchor="middle" style="white-space: pre;" direction="ltr" dominant-baseline="text-before-edge">(LV)</text></g><g stroke-linecap="round" transform="translate(1029 1365) rotate(0 184 161)"><path d="M97.97 19.19 C111.92 10.1, 132.8 6.82, 150.69 3.65 C168.59 0.48, 187.54 -1.34, 205.36 0.17 C223.17 1.68, 241.13 6.26, 257.6 12.71 C274.07 19.16, 290.51 28.36, 304.17 38.9 C317.83 49.43, 329.81 62.32, 339.56 75.9 C349.31 89.48, 358.04 105.28, 362.66 120.38 C367.27 135.48, 367.95 150.88, 367.25 166.49 C366.55 182.1, 364.49 199.03, 358.46 214.04 C352.43 229.05, 341.86 243.65, 331.04 256.54 C320.23 269.43, 308 281.83, 293.56 291.4 C279.12 300.97, 261.7 308.94, 244.41 313.96 C227.11 318.98, 207.93 320.97, 189.78 321.54 C171.64 322.1, 153 321.55, 135.54 317.35 C118.08 313.15, 100.13 304.74, 85.02 296.32 C69.9 287.89, 56.55 278.49, 44.85 266.79 C33.15 255.1, 22 240.9, 14.84 226.15 C7.67 211.4, 3.68 194.13, 1.85 178.28 C0.02 162.42, 0.49 146.48, 3.87 131.03 C7.24 115.58, 13.86 99.45, 22.09 85.58 C30.32 71.72, 39.66 59.55, 53.23 47.84 C66.79 36.13, 94.01 20.46, 103.48 15.31 C112.95 10.17, 108.67 14.24, 110.07 16.96 M103.58 17.12 C117.5 8, 137.23 4.48, 155.27 1.88 C173.31 -0.71, 193.87 -0.81, 211.83 1.55 C229.78 3.91, 246.84 9.11, 263.02 16.06 C279.19 23, 295.76 32.7, 308.87 43.23 C321.98 53.76, 332.5 65.57, 341.7 79.25 C350.91 92.92, 359.75 109.63, 364.1 125.27 C368.46 140.9, 369.42 157.65, 367.84 173.06 C366.26 188.48, 360.96 203.01, 354.63 217.77 C348.29 232.53, 340.6 248.96, 329.81 261.62 C319.01 274.28, 304.86 284.87, 289.87 293.71 C274.88 302.56, 257.55 309.91, 239.86 314.69 C222.16 319.47, 202.1 322.28, 183.68 322.4 C165.26 322.52, 146.27 320.23, 129.36 315.4 C112.45 310.58, 96.93 302.55, 82.21 293.44 C67.49 284.33, 52.68 272.94, 41.05 260.74 C29.41 248.53, 19.11 234.73, 12.42 220.21 C5.73 205.69, 2.05 189.05, 0.9 173.61 C-0.24 158.16, 1.47 142.89, 5.54 127.53 C9.6 112.17, 16.42 95.58, 25.31 81.44 C34.19 67.31, 45.7 53.36, 58.84 42.71 C71.99 32.06, 96.49 21.42, 104.17 17.55 C111.84 13.67, 103.82 17.38, 104.9 19.46" stroke="#000000" stroke-width="4" fill="none"></path></g><g transform="translate(1147.9963637973196 1439.7558082289659) rotate(0 64.89598846435547 86.39999999999998)"><text x="64.89598846435547" y="0" font-family="Virgil, Segoe UI Emoji" font-size="48px" fill="#000000" text-anchor="middle" style="white-space: pre;" direction="ltr" dominant-baseline="text-before-edge">Store</text><text x="64.89598846435547" y="57.599999999999994" font-family="Virgil, Segoe UI Emoji" font-size="48px" fill="#000000" text-anchor="middle" style="white-space: pre;" direction="ltr" dominant-baseline="text-before-edge">1TB</text><text x="64.89598846435547" y="115.19999999999999" font-family="Virgil, Segoe UI Emoji" font-size="48px" fill="#000000" text-anchor="middle" style="white-space: pre;" direction="ltr" dominant-baseline="text-before-edge">(LV)</text></g><g transform="translate(1073 909) rotate(0 44.015625 28.799999999999955)"><text x="0" y="0" font-family="Helvetica, Segoe UI Emoji" font-size="48px" fill="#000000" text-anchor="start" style="white-space: pre;" direction="ltr" dominant-baseline="text-before-edge">3TB</text></g><g stroke-linecap="round"><g transform="translate(753.0000000000018 1261) rotate(0 -28.48808471716478 43.495926990206385)"><path d="M0.48 -0.45 C-8.78 14.53, -46.78 74.02, -56.33 88.72 M-0.72 -1.73 C-10.11 13, -48.52 71.87, -57.46 86.97" stroke="#000000" stroke-width="4" fill="none"></path></g><g transform="translate(753.0000000000018 1261) rotate(0 -28.48808471716478 43.495926990206385)"><path d="M-51.94 57.07 C-51.77 63.28, -54.92 69.78, -59.23 88.07 M-51.01 57.48 C-52.48 63.57, -54.11 69.1, -58.02 87.81" stroke="#000000" stroke-width="4" fill="none"></path></g><g transform="translate(753.0000000000018 1261) rotate(0 -28.48808471716478 43.495926990206385)"><path d="M-34.54 67.96 C-38.43 71.63, -45.75 75.53, -59.23 88.07 M-33.62 68.37 C-38.72 72.35, -43.88 75.67, -58.02 87.81" stroke="#000000" stroke-width="4" fill="none"></path></g></g><mask></mask><g stroke-linecap="round"><g transform="translate(1026.479745884466 1253) rotate(0 59.16704207798159 60.60444560380722)"><path d="M0.32 -0.69 C20.15 19.38, 99.47 100.17, 119.3 120.36 M-0.96 1.56 C18.77 21.84, 98.91 101.86, 118.93 121.9" stroke="#000000" stroke-width="4" fill="none"></path></g><g transform="translate(1026.479745884466 1253) rotate(0 59.16704207798159 60.60444560380722)"><path d="M90.59 111.05 C100.62 115.15, 109.64 117.91, 120.81 121.32 M91.59 110.08 C98.38 111.31, 103.15 114.82, 119.54 121.33" stroke="#000000" stroke-width="4" fill="none"></path></g><g transform="translate(1026.479745884466 1253) rotate(0 59.16704207798159 60.60444560380722)"><path d="M105.1 96.54 C110.38 105.42, 114.66 112.93, 120.81 121.32 M106.1 95.57 C109.93 99.98, 111.6 106.58, 119.54 121.33" stroke="#000000" stroke-width="4" fill="none"></path></g></g><mask></mask><g stroke-linecap="round" transform="translate(10 10) rotate(0 967.5 1022.5)"><path d="M32 0 M32 0 C491.58 -2.94, 950.05 -2.93, 1903 0 M1903 0 C1925.57 -0.92, 1936.87 9.09, 1935 32 M1935 32 C1933.18 767.88, 1932.24 1505.44, 1935 2013 M1935 2013 C1934.77 2032.58, 1923.18 2044.16, 1903 2045 M1903 2045 C1163.69 2046.07, 422.47 2046.53, 32 2045 M32 2045 C8.78 2044.09, -1.53 2033.43, 0 2013 M0 2013 C-0.09 1292.73, -0.36 572.27, 0 32 M0 32 C-1.33 10.27, 9.11 1.56, 32 0" stroke="#000000" stroke-width="4.5" fill="none" stroke-dasharray="8 12"></path></g><g transform="translate(145 125) rotate(0 50.975990295410156 28.799999999999955)"><text x="0" y="0" font-family="Virgil, Segoe UI Emoji" font-size="48px" fill="#000000" text-anchor="start" style="white-space: pre;" direction="ltr" dominant-baseline="text-before-edge">LVM:</text></g></svg>