<svg version="1.1" xmlns="http://www.w3.org/2000/svg" viewBox="0 0 3167.0044628127876 1572.3212203668236" width="6334.008925625575" height="3144.642440733647">
  <!-- svg-source:excalidraw -->
  
  <defs>
    <style class="style-fonts">
      @font-face {
        font-family: "Virgil";
        src: url("https://excalidraw.com/Virgil.woff2");
      }
      @font-face {
        font-family: "Cascadia";
        src: url("https://excalidraw.com/Cascadia.woff2");
      }
    </style>
  </defs>
  <rect x="0" y="0" width="3167.0044628127876" height="1572.3212203668236" fill="#ffffff"></rect><g stroke-linecap="round" transform="translate(690.1958929253572 23.123352243182865) rotate(0 145.74192306055997 74.48876124601628)"><path d="M32 0 M32 0 C93.56 0.01, 156.94 -0.76, 259.48 0 M32 0 C98.75 3.93, 164 4.27, 259.48 0 M259.48 0 C278.25 3.01, 287.95 12.1, 291.48 32 M259.48 0 C281.57 -0.27, 294.32 6.21, 291.48 32 M291.48 32 C293.19 50.64, 291.35 76.47, 291.48 116.98 M291.48 32 C291.55 52.38, 292.67 71.04, 291.48 116.98 M291.48 116.98 C290.77 136.71, 282.8 149.94, 259.48 148.98 M291.48 116.98 C287.28 137.51, 283.58 149.35, 259.48 148.98 M259.48 148.98 C186.77 148.43, 112.41 146.51, 32 148.98 M259.48 148.98 C196.28 147.4, 132.96 146.93, 32 148.98 M32 148.98 C9.69 150.64, 0.34 138.35, 0 116.98 M32 148.98 C6.07 151.26, 3.91 139.98, 0 116.98 M0 116.98 C-0.32 97.56, -2.61 73.52, 0 32 M0 116.98 C-0.04 93.28, -0.84 67.91, 0 32 M0 32 C0.56 7.25, 8.5 -2.57, 32 0 M0 32 C4.13 8.72, 13.33 -1.75, 32 0" stroke="#000000" stroke-width="4" fill="none"></path></g><g transform="translate(804.2971909859172 76.01211348919912) rotate(0 31.640625 21.599999999999998)"><text x="31.640625" y="0" font-family="Cascadia, Segoe UI Emoji" font-size="36px" fill="#000000" text-anchor="middle" style="white-space: pre;" direction="ltr" dominant-baseline="text-before-edge">SDA</text></g><g mask="url(#mask-3nAVnz6Tcbn_qzl3ZKJZm)" stroke-linecap="round"><g transform="translate(894.650994040087 173.61717174047237) rotate(0 52.28205023375372 92.35624636163033)"><path d="M1.01 0.93 C18.27 31.58, 87.27 152.39, 104.48 182.83 M0.08 0.38 C17.15 31.32, 86.53 154.13, 103.79 184.34" stroke="#000000" stroke-width="4" fill="none"></path></g><g transform="translate(894.650994040087 173.61717174047237) rotate(0 52.28205023375372 92.35624636163033)"><path d="M82.51 165.69 C89.26 172.44, 99.15 177.91, 105.23 185.98 M81.62 165.75 C86.31 170.42, 92.9 174.25, 104.73 184.98" stroke="#000000" stroke-width="4" fill="none"></path></g><g transform="translate(894.650994040087 173.61717174047237) rotate(0 52.28205023375372 92.35624636163033)"><path d="M100.36 155.57 C100.3 166.28, 103.47 175.56, 105.23 185.98 M99.47 155.62 C99.83 162.76, 102.07 169.06, 104.73 184.98" stroke="#000000" stroke-width="4" fill="none"></path></g></g><mask id="mask-3nAVnz6Tcbn_qzl3ZKJZm"><rect x="0" y="0" fill="#fff" width="1098.6463466325838" height="456.51866979287627"></rect><rect x="904.4611703363353" y="243.46792076667435" fill="#000" width="84.375" height="43.199999999999996" opacity="1"></rect></mask><g transform="translate(904.4611703363354 243.46792076667433) rotate(0 42.47187393750531 22.505497335428373)"><text x="42.1875" y="0" font-family="Cascadia, Segoe UI Emoji" font-size="36px" fill="#000000" text-anchor="middle" style="white-space: pre;" direction="ltr" dominant-baseline="text-before-edge">Free</text></g><g mask="url(#mask-y8C3o0o4qd9SrCzuQR2v5)" stroke-linecap="round"><g transform="translate(761.860337261769 173.71106624766904) rotate(0 -62.68921290233679 87.84916473876442)"><path d="M-0.07 0.26 C-21.01 29.39, -103.98 145.79, -124.73 175.26 M-1.56 -0.65 C-22.68 28.57, -104.76 147.03, -125.31 176.35" stroke="#000000" stroke-width="4" fill="none"></path></g><g transform="translate(761.860337261769 173.71106624766904) rotate(0 -62.68921290233679 87.84916473876442)"><path d="M-117.18 148.53 C-121.83 159.74, -121.67 168.12, -125.01 176.34 M-116.81 148.14 C-120.29 158.91, -122.37 167.86, -126.31 176.86" stroke="#000000" stroke-width="4" fill="none"></path></g><g transform="translate(761.860337261769 173.71106624766904) rotate(0 -62.68921290233679 87.84916473876442)"><path d="M-100.34 160.26 C-111.4 167.03, -117.59 170.98, -125.01 176.34 M-99.98 159.87 C-109.73 166.3, -117.98 170.95, -126.31 176.86" stroke="#000000" stroke-width="4" fill="none"></path></g></g><mask id="mask-y8C3o0o4qd9SrCzuQR2v5"><rect x="0" y="0" fill="#fff" width="987.3014804725497" height="449.827008784089"></rect><rect x="646.4053906563787" y="240.169037515879" fill="#000" width="105.46875" height="43.199999999999996" opacity="1"></rect></mask><g transform="translate(646.4053906563787 240.169037515879) rotate(0 52.76573370305353 21.39119347055444)"><text x="52.734375" y="0" font-family="Cascadia, Segoe UI Emoji" font-size="36px" fill="#000000" text-anchor="middle" style="white-space: pre;" direction="ltr" dominant-baseline="text-before-edge">/data</text></g><g stroke-linecap="round" transform="translate(517.5923505620412 353.75516073572237) rotate(0 99.52448193272073 81.06961111075924)"><path d="M109.91 0.81 C122.23 0.48, 136.61 4.4, 147.74 9.21 C158.87 14.03, 168.91 21.65, 176.68 29.71 C184.46 37.76, 190.88 47.4, 194.4 57.54 C197.92 67.67, 199.12 80.17, 197.82 90.52 C196.52 100.87, 192.53 110.77, 186.62 119.64 C180.7 128.5, 172.24 137.31, 162.34 143.71 C152.44 150.1, 139.5 155.16, 127.23 158.02 C114.95 160.87, 101.29 161.89, 88.66 160.82 C76.04 159.76, 62.57 156.56, 51.46 151.62 C40.36 146.68, 29.85 139.24, 22.03 131.16 C14.22 123.08, 8 113.05, 4.56 103.14 C1.12 93.23, 0.21 81.77, 1.41 71.7 C2.61 61.62, 5.89 51.81, 11.75 42.67 C17.61 33.53, 26.53 23.42, 36.56 16.83 C46.59 10.23, 59.01 5.85, 71.94 3.1 C84.87 0.34, 106.82 0.17, 114.15 0.28 C121.48 0.39, 116.19 2.29, 115.94 3.77 M145.23 8.13 C156.61 11.26, 169.19 20.08, 177.38 28.55 C185.57 37.02, 190.82 48.84, 194.36 58.96 C197.91 69.09, 199.93 79.03, 198.65 89.3 C197.36 99.57, 192.47 111.59, 186.66 120.6 C180.85 129.61, 173.4 137.15, 163.79 143.36 C154.19 149.56, 141.44 154.85, 129.02 157.8 C116.6 160.76, 102.03 162.02, 89.27 161.08 C76.52 160.14, 63.43 156.75, 52.51 152.16 C41.59 147.57, 31.82 141.63, 23.75 133.53 C15.69 125.44, 8.25 113.72, 4.14 103.58 C0.03 93.44, -2.19 82.75, -0.91 72.69 C0.38 62.63, 5.5 52.11, 11.87 43.22 C18.23 34.33, 27.44 26.22, 37.3 19.35 C47.16 12.48, 58.92 4.91, 71.03 1.99 C83.13 -0.94, 97.29 0.39, 109.94 1.79 C122.58 3.19, 140.78 8.98, 146.87 10.4 C152.97 11.83, 147.35 9.21, 146.5 10.35" stroke="#000000" stroke-width="4" fill="none"></path></g><g transform="translate(596.1486464260571 413.39990008190745) rotate(0 21.09375 21.599999999999994)"><text x="21.09375" y="0" font-family="Cascadia, Segoe UI Emoji" font-size="36px" fill="#000000" text-anchor="middle" style="white-space: pre;" direction="ltr" dominant-baseline="text-before-edge">1G</text></g><g stroke-linecap="round" transform="translate(915.1446378232316 361.1187506182989) rotate(0 99.52448193272073 81.06961111075924)"><path d="M62.7 5.34 C73.36 0.56, 87.44 -0.31, 100.15 -0.26 C112.86 -0.2, 127.24 1.55, 138.96 5.67 C150.67 9.79, 161.48 16.71, 170.43 24.45 C179.39 32.19, 187.87 42.38, 192.67 52.1 C197.48 61.82, 199.42 72.71, 199.25 82.77 C199.07 92.84, 196.62 103.14, 191.62 112.49 C186.62 121.84, 178.63 131.47, 169.25 138.88 C159.87 146.29, 147.17 152.96, 135.34 156.95 C123.51 160.94, 110.7 163.13, 98.27 162.82 C85.84 162.51, 72.32 159.21, 60.77 155.08 C49.22 150.96, 37.85 145.47, 28.96 138.09 C20.08 130.71, 12.2 120.58, 7.45 110.81 C2.7 101.04, 0.48 89.94, 0.48 79.49 C0.47 69.03, 2.4 57.55, 7.4 48.08 C12.4 38.6, 20.23 29.99, 30.48 22.61 C40.72 15.23, 61.33 6.85, 68.88 3.79 C76.44 0.72, 75.31 2.81, 75.82 4.23 M122.97 2.8 C135.25 3.61, 147.6 8.42, 157.75 14.28 C167.91 20.14, 177.23 29.27, 183.91 37.96 C190.59 46.64, 195.59 56.39, 197.84 66.4 C200.08 76.41, 200.23 87.64, 197.37 98.02 C194.52 108.39, 188.44 120.12, 180.71 128.66 C172.97 137.19, 161.5 143.8, 150.94 149.25 C140.37 154.71, 129.44 159.64, 117.31 161.39 C105.18 163.13, 90.6 162.1, 78.16 159.72 C65.71 157.34, 52.92 153.31, 42.64 147.12 C32.35 140.94, 23.12 131.14, 16.44 122.6 C9.75 114.06, 4.91 105.84, 2.54 95.86 C0.17 85.89, -0.57 72.99, 2.21 62.73 C5 52.48, 11.86 42.74, 19.27 34.33 C26.69 25.92, 35.98 18.01, 46.7 12.27 C57.42 6.53, 70.98 1.66, 83.61 -0.11 C96.25 -1.88, 116.14 1.24, 122.51 1.67 C128.89 2.1, 122.18 0.86, 121.85 2.47" stroke="#000000" stroke-width="4" fill="none"></path></g><g transform="translate(993.7009336872475 420.7634899644841) rotate(0 21.09375 21.599999999999994)"><text x="21.09375" y="0" font-family="Cascadia, Segoe UI Emoji" font-size="36px" fill="#000000" text-anchor="middle" style="white-space: pre;" direction="ltr" dominant-baseline="text-before-edge">4G</text></g><g transform="translate(894.5989973535394 36.0677415862433) rotate(0 21.09375 21.599999999999998)"><text x="0" y="0" font-family="Cascadia, Segoe UI Emoji" font-size="36px" fill="#000000" text-anchor="start" style="white-space: pre;" direction="ltr" dominant-baseline="text-before-edge">5G</text></g><g stroke-linecap="round" transform="translate(2155.716677242741 10) rotate(0 145.74192306056 74.48876124601628)"><path d="M32 0 M32 0 C89.8 2.82, 146.93 3.73, 259.48 0 M32 0 C117.57 0.2, 200.04 0.18, 259.48 0 M259.48 0 C278.71 0.54, 288.61 14.41, 291.48 32 M259.48 0 C280.64 3.79, 295.83 10.01, 291.48 32 M291.48 32 C292.06 64.91, 289.76 88.51, 291.48 116.98 M291.48 32 C291.81 61.18, 292.89 92.51, 291.48 116.98 M291.48 116.98 C287.72 137.77, 283.77 152.06, 259.48 148.98 M291.48 116.98 C291.94 142.09, 278.12 145.94, 259.48 148.98 M259.48 148.98 C214.38 147.1, 166.24 147.61, 32 148.98 M259.48 148.98 C206.3 146.29, 153.96 147.56, 32 148.98 M32 148.98 C13.42 151.8, -1.53 138.65, 0 116.98 M32 148.98 C12.53 145.93, 2.72 136.49, 0 116.98 M0 116.98 C-4.27 96.04, -2.24 85.34, 0 32 M0 116.98 C3.04 95.36, 0.75 71.65, 0 32 M0 32 C2.53 12.04, 7.6 3.46, 32 0 M0 32 C0.2 14.57, 12.09 -0.84, 32 0" stroke="#000000" stroke-width="4" fill="none"></path></g><g transform="translate(2269.817975303301 62.88876124601629) rotate(0 31.640625 21.599999999999998)"><text x="31.640625" y="0" font-family="Cascadia, Segoe UI Emoji" font-size="36px" fill="#000000" text-anchor="middle" style="white-space: pre;" direction="ltr" dominant-baseline="text-before-edge">SDB</text></g><g mask="url(#mask-NBRGZcEllhS9SeSn0Frhe)" stroke-linecap="round"><g transform="translate(2360.5735927597902 160.49381949728894) rotate(0 53.143959253196726 92.38102651076078)"><path d="M-0.21 -0.45 C17.98 30.65, 90.14 155.41, 108.07 186.49 M-1.78 -1.73 C16.35 29.05, 89.16 153.87, 107.18 184.81" stroke="#000000" stroke-width="4" fill="none"></path></g><g transform="translate(2360.5735927597902 160.49381949728894) rotate(0 53.143959253196726 92.38102651076078)"><path d="M83.37 165.8 C90.38 168.78, 94.51 175.53, 108.86 184.64 M83.4 166.56 C92.82 173.77, 102.64 180.16, 107.6 184.43" stroke="#000000" stroke-width="4" fill="none"></path></g><g transform="translate(2360.5735927597902 160.49381949728894) rotate(0 53.143959253196726 92.38102651076078)"><path d="M101.09 155.47 C104.34 160.6, 104.72 169.54, 108.86 184.64 M101.13 156.22 C103.69 167.42, 106.72 177.77, 107.6 184.43" stroke="#000000" stroke-width="4" fill="none"></path></g></g><mask id="mask-NBRGZcEllhS9SeSn0Frhe"><rect x="0" y="0" fill="#fff" width="2568.5342931503415" height="446.150202711084"></rect><rect x="2361.8195679550654" y="231.72201110418644" fill="#000" width="105.46875" height="43.199999999999996" opacity="1"></rect></mask><g transform="translate(2361.8195679550654 231.72201110418646) rotate(0 51.89798405792112 21.15283490386325)"><text x="52.734375" y="0" font-family="Cascadia, Segoe UI Emoji" font-size="36px" fill="#000000" text-anchor="middle" style="white-space: pre;" direction="ltr" dominant-baseline="text-before-edge">/Data</text></g><g mask="url(#mask-IbPFNw2b1X48Q8Eq5CzUo)" stroke-linecap="round"><g transform="translate(2227.3811215791525 160.58771400448558) rotate(0 -63.57474078984876 88.36448578107395)"><path d="M0.11 0.84 C-20.86 30.33, -105.26 147.12, -126.01 176.5 M-1.29 0.23 C-22.45 29.39, -106.7 145.4, -127.26 174.58" stroke="#000000" stroke-width="4" fill="none"></path></g><g transform="translate(2227.3811215791525 160.58771400448558) rotate(0 -63.57474078984876 88.36448578107395)"><path d="M-117.78 144.74 C-120.92 155.59, -122.16 161.84, -125.59 173.52 M-119.21 146.51 C-120.97 154.68, -124.03 163.51, -128 174.88" stroke="#000000" stroke-width="4" fill="none"></path></g><g transform="translate(2227.3811215791525 160.58771400448558) rotate(0 -63.57474078984876 88.36448578107395)"><path d="M-101.1 156.7 C-108.91 164.18, -114.86 167.06, -125.59 173.52 M-102.53 158.47 C-109.43 163.04, -117.73 168.12, -128 174.88" stroke="#000000" stroke-width="4" fill="none"></path></g></g><mask id="mask-IbPFNw2b1X48Q8Eq5CzUo"><rect x="0" y="0" fill="#fff" width="2452.822264789933" height="436.70365654090557"></rect><rect x="2122.473049973762" y="227.04568527269555" fill="#000" width="84.375" height="43.199999999999996" opacity="1"></rect></mask><g transform="translate(2122.473049973762 227.04568527269558) rotate(0 41.33333081554167 21.90651451286395)"><text x="42.1875" y="0" font-family="Cascadia, Segoe UI Emoji" font-size="36px" fill="#000000" text-anchor="middle" style="white-space: pre;" direction="ltr" dominant-baseline="text-before-edge">Free</text></g><g stroke-linecap="round" transform="translate(1983.1131348794247 340.6318084925387) rotate(0 99.52448193272073 81.06961111075924)"><path d="M142.17 6.97 C153.64 9.86, 164.23 17.73, 172.85 25.41 C181.47 33.1, 189.4 43.1, 193.89 53.09 C198.38 63.07, 200.49 74.91, 199.79 85.32 C199.09 95.73, 195.23 106.44, 189.7 115.54 C184.17 124.65, 175.85 132.85, 166.59 139.94 C157.33 147.04, 146.03 154.51, 134.13 158.13 C122.23 161.76, 107.85 162.3, 95.19 161.67 C82.53 161.05, 69.51 158.59, 58.17 154.38 C46.82 150.16, 35.82 143.8, 27.13 136.39 C18.44 128.99, 10.38 119.87, 6.03 109.94 C1.68 100.01, 0.52 87.19, 1.02 76.82 C1.53 66.46, 3.77 56.96, 9.07 47.75 C14.38 38.54, 23.35 28.78, 32.85 21.55 C42.35 14.32, 54.37 8.13, 66.04 4.38 C77.72 0.63, 89.07 -1.8, 102.93 -0.92 C116.78 -0.05, 140.65 6.91, 149.18 9.64 C157.7 12.37, 155.13 14.06, 154.08 15.45 M64.73 3.64 C75.5 -0.84, 90.14 -0.9, 103.11 -0.07 C116.09 0.77, 131.06 4.23, 142.59 8.64 C154.12 13.06, 163.8 19.13, 172.31 26.41 C180.82 33.69, 189.05 42.73, 193.64 52.32 C198.23 61.92, 200.72 73.26, 199.84 83.99 C198.97 94.72, 193.85 107.4, 188.38 116.71 C182.9 126.01, 176.32 133.1, 166.99 139.82 C157.67 146.53, 144.13 153.39, 132.41 156.99 C120.69 160.6, 109.36 161.63, 96.69 161.44 C84.02 161.25, 67.91 160.06, 56.37 155.84 C44.84 151.62, 35.96 144.12, 27.5 136.11 C19.04 128.09, 10.04 117.42, 5.63 107.75 C1.22 98.08, 0.62 88.01, 1.04 78.07 C1.46 68.13, 2.95 57.37, 8.16 48.13 C13.38 38.88, 22.7 29.84, 32.33 22.59 C41.96 15.34, 60.29 7.35, 65.92 4.62 C71.55 1.9, 65.7 4.73, 66.09 6.25" stroke="#000000" stroke-width="4" fill="none"></path></g><g transform="translate(2061.669430743441 400.27654783872373) rotate(0 21.09375 21.599999999999994)"><text x="21.09375" y="0" font-family="Cascadia, Segoe UI Emoji" font-size="36px" fill="#000000" text-anchor="middle" style="white-space: pre;" direction="ltr" dominant-baseline="text-before-edge">4G</text></g><g stroke-linecap="round" transform="translate(2385.9382423754614 350.6318084925385) rotate(0 99.52448193272062 81.06961111075924)"><path d="M95.45 -0.65 C107.45 -2.23, 122.58 1.06, 134.62 4.89 C146.66 8.71, 158.51 15.24, 167.68 22.31 C176.85 29.39, 184.48 38.22, 189.64 47.32 C194.79 56.42, 197.97 66.47, 198.58 76.89 C199.2 87.32, 197.65 100.09, 193.31 109.86 C188.97 119.63, 181.11 128.1, 172.55 135.52 C163.98 142.93, 153.25 149.84, 141.92 154.33 C130.58 158.81, 117.3 161.82, 104.53 162.45 C91.76 163.09, 77.2 161.91, 65.3 158.14 C53.4 154.37, 42.5 146.86, 33.14 139.83 C23.77 132.8, 14.51 125.18, 9.14 115.97 C3.76 106.77, 1.24 95.15, 0.86 84.6 C0.48 74.05, 2.75 62.55, 6.87 52.66 C10.99 42.76, 16.98 32.88, 25.57 25.23 C34.17 17.59, 43.88 10.81, 58.43 6.78 C72.99 2.75, 101.21 1.2, 112.9 1.05 C124.6 0.89, 128.96 4.62, 128.6 5.85 M82.82 0.91 C94.77 -1.51, 111 0.8, 123.38 3.22 C135.76 5.64, 146.87 9.71, 157.11 15.41 C167.34 21.11, 177.85 28.75, 184.77 37.42 C191.69 46.1, 196.93 56.85, 198.64 67.46 C200.36 78.06, 198.06 91.06, 195.04 101.06 C192.01 111.05, 187.89 119.32, 180.5 127.43 C173.11 135.55, 161.29 144.26, 150.7 149.76 C140.12 155.27, 129.51 158.54, 116.99 160.46 C104.47 162.38, 87.97 163.49, 75.59 161.27 C63.2 159.04, 52.88 153.54, 42.7 147.11 C32.52 140.67, 21.25 131.4, 14.5 122.65 C7.76 113.9, 4.41 104.42, 2.24 94.6 C0.07 84.79, -1.26 73.72, 1.5 63.78 C4.27 53.84, 11.14 43.62, 18.82 34.97 C26.51 26.32, 36.85 17.53, 47.63 11.85 C58.4 6.17, 77.56 2.21, 83.49 0.88 C89.43 -0.44, 82.89 2.75, 83.24 3.9" stroke="#000000" stroke-width="4" fill="none"></path></g><g transform="translate(2464.494538239477 410.27654783872356) rotate(0 21.093750000000114 21.599999999999994)"><text x="21.09375" y="0" font-family="Cascadia, Segoe UI Emoji" font-size="36px" fill="#000000" text-anchor="middle" style="white-space: pre;" direction="ltr" dominant-baseline="text-before-edge">1G</text></g><g transform="translate(2360.1197816709227 22.944389343060436) rotate(0 21.09375 21.599999999999998)"><text x="0" y="0" font-family="Cascadia, Segoe UI Emoji" font-size="36px" fill="#000000" text-anchor="start" style="white-space: pre;" direction="ltr" dominant-baseline="text-before-edge">5G</text></g><g transform="translate(1326.2908992236098 38.52066818700138) rotate(0 242.57812500000006 107.99999999999999)"><text x="0" y="0" font-family="Cascadia, Segoe UI Emoji" font-size="36px" fill="#000000" text-anchor="start" style="white-space: pre;" direction="ltr" dominant-baseline="text-before-edge">LVM :</text><text x="0" y="43.199999999999996" font-family="Cascadia, Segoe UI Emoji" font-size="36px" fill="#000000" text-anchor="start" style="white-space: pre;" direction="ltr" dominant-baseline="text-before-edge"></text><text x="0" y="86.39999999999999" font-family="Cascadia, Segoe UI Emoji" font-size="36px" fill="#000000" text-anchor="start" style="white-space: pre;" direction="ltr" dominant-baseline="text-before-edge">1. Physical Volume (PV)</text><text x="0" y="129.6" font-family="Cascadia, Segoe UI Emoji" font-size="36px" fill="#000000" text-anchor="start" style="white-space: pre;" direction="ltr" dominant-baseline="text-before-edge">2. Volume Group (VG)</text><text x="0" y="172.79999999999998" font-family="Cascadia, Segoe UI Emoji" font-size="36px" fill="#000000" text-anchor="start" style="white-space: pre;" direction="ltr" dominant-baseline="text-before-edge">3. Logical Volume (LV)</text></g><g stroke-linecap="round"><g transform="translate(1115.1818405562312 443.7773000110647) rotate(0 103.57492391076107 0.42635432858952527)"><path d="M-0.73 0.18 C34.09 0.26, 173.09 0.29, 207.88 0.06 M1.09 -0.78 C35.91 -0.45, 172.88 1.58, 207.31 1.63" stroke="#000000" stroke-width="4" fill="none"></path></g><g transform="translate(1115.1818405562312 443.7773000110647) rotate(0 103.57492391076107 0.42635432858952527)"><path d="M179.33 12.85 C185.18 11.14, 189.13 8.55, 207.59 2.6 M178.04 11.42 C186.71 7.87, 195.59 5.43, 208.03 1.24" stroke="#000000" stroke-width="4" fill="none"></path></g><g transform="translate(1115.1818405562312 443.7773000110647) rotate(0 103.57492391076107 0.42635432858952527)"><path d="M179.51 -7.67 C185.26 -5.01, 189.16 -3.24, 207.59 2.6 M178.23 -9.1 C186.88 -6.68, 195.7 -3.16, 208.03 1.24" stroke="#000000" stroke-width="4" fill="none"></path></g></g><mask></mask><g stroke-linecap="round"><g transform="translate(1982.46581564128 428.57006477663606) rotate(0 -91.51276730818665 2.13372556271446)"><path d="M-0.9 0 C-31.42 0.74, -153.73 3.17, -183.86 3.9 M0.84 -1.05 C-29.28 -0.07, -151.32 4.18, -181.78 5.32" stroke="#000000" stroke-width="4" fill="none"></path></g><g transform="translate(1982.46581564128 428.57006477663606) rotate(0 -91.51276730818665 2.13372556271446)"><path d="M-153.98 -7.94 C-161.08 -1.78, -167.01 0.53, -182.07 3.47 M-153.11 -5 C-165.87 -0.97, -176.32 2.58, -180.84 5.99" stroke="#000000" stroke-width="4" fill="none"></path></g><g transform="translate(1982.46581564128 428.57006477663606) rotate(0 -91.51276730818665 2.13372556271446)"><path d="M-153.24 12.57 C-160.42 13.79, -166.53 11.16, -182.07 3.47 M-152.38 15.5 C-165.56 11.44, -176.3 6.89, -180.84 5.99" stroke="#000000" stroke-width="4" fill="none"></path></g></g><mask></mask><g stroke-linecap="round" transform="translate(1322.3307388087069 371.8203143023099) rotate(0 100.30367704856735 68.68621363108406)"><path d="M60.7 6.81 C72.16 2.12, 88.14 -0.7, 101.43 -0.76 C114.72 -0.83, 128.27 2.59, 140.44 6.4 C152.61 10.21, 165.15 15.22, 174.44 22.11 C183.73 28.99, 191.84 38.64, 196.17 47.73 C200.5 56.82, 201.83 67.46, 200.43 76.66 C199.03 85.86, 194.56 95.04, 187.77 102.96 C180.99 110.87, 170.78 118.65, 159.72 124.16 C148.65 129.67, 134.72 134.21, 121.4 136.04 C108.07 137.87, 93.08 136.96, 79.79 135.14 C66.49 133.31, 52.72 130.52, 41.64 125.09 C30.55 119.66, 20.13 110.93, 13.28 102.53 C6.43 94.14, 1.93 84, 0.55 74.7 C-0.82 65.41, 0.68 55.39, 5.05 46.74 C9.41 38.08, 16.09 30.14, 26.75 22.78 C37.42 15.42, 59.99 6.01, 69.02 2.57 C78.06 -0.87, 80.29 0.97, 80.98 2.12 M67.26 2.12 C78.92 -1.98, 95.51 -1, 109.44 0.03 C123.37 1.07, 138.95 3.76, 150.86 8.3 C162.78 12.85, 173.26 19.91, 180.92 27.29 C188.58 34.68, 193.9 43.29, 196.84 52.63 C199.78 61.97, 200.85 73.9, 198.56 83.34 C196.27 92.78, 191.11 101.74, 183.12 109.25 C175.13 116.76, 162.37 123.7, 150.61 128.41 C138.84 133.11, 126 136.56, 112.55 137.47 C99.09 138.39, 83.19 136.68, 69.9 133.89 C56.61 131.1, 42.75 127, 32.8 120.73 C22.85 114.46, 15.71 104.71, 10.19 96.26 C4.66 87.81, 0.09 79.44, -0.34 70.05 C-0.77 60.66, 1.91 48.81, 7.61 39.92 C13.32 31.02, 23.67 22.68, 33.89 16.69 C44.11 10.7, 63.14 6.15, 68.93 3.96 C74.71 1.77, 68.06 2.53, 68.59 3.54" stroke="#000000" stroke-width="4" fill="none"></path></g><g transform="translate(1369.9746306382867 418.83804050082654) rotate(0 52.734375 21.599999999999994)"><text x="52.734375" y="0" font-family="Cascadia, Segoe UI Emoji" font-size="36px" fill="#000000" text-anchor="middle" style="white-space: pre;" direction="ltr" dominant-baseline="text-before-edge">PV 4G</text></g><g stroke-linecap="round" transform="translate(1593.99250502236 366.55671127318016) rotate(0 100.30367704856735 68.68621363108406)"><path d="M147 8.46 C159.19 11.51, 171.72 18.69, 180.33 26.11 C188.94 33.53, 195.54 43.8, 198.67 52.98 C201.79 62.16, 201.77 72.26, 199.07 81.21 C196.37 90.15, 190.18 98.9, 182.46 106.67 C174.74 114.44, 164.26 122.87, 152.75 127.83 C141.25 132.78, 126.94 135.37, 113.43 136.38 C99.93 137.39, 84.55 136.29, 71.73 133.87 C58.9 131.44, 46.77 127.86, 36.49 121.84 C26.2 115.83, 16.09 106.33, 10.01 97.79 C3.93 89.25, 0.36 79.93, 0.01 70.63 C-0.35 61.33, 2.63 50.54, 7.89 41.99 C13.15 33.44, 21.76 25.5, 31.55 19.33 C41.34 13.17, 53.83 8.32, 66.62 5.03 C79.4 1.74, 93.6 -1.26, 108.24 -0.41 C122.88 0.43, 145.63 7.3, 154.47 10.09 C163.3 12.88, 162 15.32, 161.24 16.3 M63.28 4.92 C74.75 0.52, 90.93 -1.29, 104.34 -0.81 C117.75 -0.33, 131.38 3.39, 143.75 7.79 C156.11 12.2, 169.71 18.75, 178.52 25.63 C187.33 32.51, 193.24 40.33, 196.61 49.08 C199.98 57.83, 200.86 68.52, 198.77 78.13 C196.68 87.74, 191.21 98.88, 184.05 106.72 C176.89 114.57, 166.79 120.04, 155.8 125.21 C144.8 130.38, 131.59 136.2, 118.09 137.74 C104.6 139.28, 88.27 136.85, 74.83 134.46 C61.38 132.07, 47.98 129.31, 37.43 123.43 C26.87 117.54, 17.47 107.42, 11.51 99.17 C5.56 90.91, 2.33 82.85, 1.7 73.91 C1.06 64.96, 3 54.11, 7.7 45.48 C12.39 36.85, 20.6 28.84, 29.88 22.13 C39.17 15.42, 57.65 8.04, 63.39 5.24 C69.13 2.43, 63.93 4.38, 64.3 5.29" stroke="#000000" stroke-width="4" fill="none"></path></g><g transform="translate(1641.63639685194 413.5744374716968) rotate(0 52.734375 21.599999999999994)"><text x="52.734375" y="0" font-family="Cascadia, Segoe UI Emoji" font-size="36px" fill="#000000" text-anchor="middle" style="white-space: pre;" direction="ltr" dominant-baseline="text-before-edge">PV 4G</text></g><g stroke-linecap="round" transform="translate(1392.1072097990145 585.510756710127) rotate(0 195.5 146.5)"><path d="M232.89 2.09 C251.17 2.35, 271.06 10.73, 288.01 17.85 C304.97 24.96, 321.08 34.57, 334.62 44.77 C348.16 54.97, 360.3 66.43, 369.26 79.06 C378.22 91.69, 385.17 106.38, 388.39 120.56 C391.62 134.74, 390.89 149.72, 388.6 164.12 C386.32 178.53, 382.52 193.98, 374.68 206.99 C366.85 220, 354.33 231.37, 341.59 242.19 C328.85 253.02, 314.3 264.14, 298.24 271.95 C282.18 279.76, 263.87 285.68, 245.22 289.03 C226.58 292.37, 205.87 292.77, 186.38 292.02 C166.89 291.27, 146.4 289.15, 128.31 284.53 C110.22 279.91, 92.97 273.03, 77.84 264.31 C62.72 255.58, 48.65 244.07, 37.56 232.2 C26.46 220.33, 17.58 206.67, 11.28 193.08 C4.97 179.49, 0.56 164.8, -0.29 150.66 C-1.14 136.51, 1.05 122.1, 6.16 108.21 C11.28 94.33, 19.99 79.6, 30.41 67.35 C40.82 55.1, 53.77 44.15, 68.66 34.71 C83.54 25.27, 101.96 16.43, 119.72 10.7 C137.47 4.97, 154.81 1.54, 175.2 0.32 C195.59 -0.9, 229.85 2.16, 242.05 3.39 C254.25 4.62, 249.06 5.05, 248.39 7.71 M268.67 12 C286.63 14.96, 304.82 23.39, 319.66 32.22 C334.49 41.05, 347 52.57, 357.67 64.98 C368.34 77.4, 377.88 92.71, 383.68 106.72 C389.48 120.72, 393 134.99, 392.46 149.01 C391.93 163.02, 386.47 177.35, 380.45 190.79 C374.43 204.23, 367.14 217.78, 356.33 229.64 C345.51 241.5, 331.15 253.03, 315.58 261.97 C300 270.91, 280.91 278.4, 262.87 283.29 C244.82 288.18, 226.35 290.35, 207.32 291.32 C188.28 292.29, 167.65 292.16, 148.68 289.1 C129.72 286.04, 109.92 280.41, 93.53 272.96 C77.14 265.5, 62.81 255.4, 50.34 244.36 C37.86 233.32, 26.66 219.94, 18.68 206.72 C10.7 193.5, 5.2 179.08, 2.46 165.07 C-0.27 151.06, -0.62 136.74, 2.27 122.66 C5.17 108.58, 11.27 93.32, 19.83 80.59 C28.38 67.86, 40.14 56.7, 53.59 46.3 C67.03 35.91, 83.62 25.38, 100.5 18.2 C117.37 11.03, 136.05 6.02, 154.83 3.28 C173.6 0.54, 193.9 0.66, 213.15 1.78 C232.4 2.91, 261.34 8.24, 270.35 10.03 C279.36 11.82, 268.52 10.16, 267.21 12.54" stroke="#000000" stroke-width="4" fill="none"></path></g><g transform="translate(1460.8053340770443 667.1196132662978) rotate(0 126.56249999999994 64.80000000000001)"><text x="126.5625" y="0" font-family="Cascadia, Segoe UI Emoji" font-size="36px" fill="#000000" text-anchor="middle" style="white-space: pre;" direction="ltr" dominant-baseline="text-before-edge">Volume Group</text><text x="126.5625" y="43.199999999999996" font-family="Cascadia, Segoe UI Emoji" font-size="36px" fill="#000000" text-anchor="middle" style="white-space: pre;" direction="ltr" dominant-baseline="text-before-edge">8G </text><text x="126.5625" y="86.39999999999999" font-family="Cascadia, Segoe UI Emoji" font-size="36px" fill="#000000" text-anchor="middle" style="white-space: pre;" direction="ltr" dominant-baseline="text-before-edge">(8MB Extent)</text></g><g stroke-linecap="round"><g transform="translate(1700.4263284934914 506.8999984564513) rotate(0 -17.500207839272548 42.788961141273376)"><path d="M-0.78 0.07 C-6.72 14.39, -30.3 70.66, -36.01 84.99 M1 -0.94 C-4.54 13.67, -27.71 72.32, -33.85 86.51" stroke="#000000" stroke-width="4" fill="none"></path></g><g transform="translate(1700.4263284934914 506.8999984564513) rotate(0 -17.500207839272548 42.788961141273376)"><path d="M-32.52 54.77 C-33.24 64.4, -31.82 72.79, -35.13 87.46 M-32.93 57.02 C-33.22 68.86, -33.99 79.79, -33.93 86.54" stroke="#000000" stroke-width="4" fill="none"></path></g><g transform="translate(1700.4263284934914 506.8999984564513) rotate(0 -17.500207839272548 42.788961141273376)"><path d="M-13.53 62.56 C-19.28 69.98, -22.94 76.29, -35.13 87.46 M-13.95 64.81 C-21.68 73.53, -29.95 81.38, -33.93 86.54" stroke="#000000" stroke-width="4" fill="none"></path></g></g><mask></mask><g stroke-linecap="round"><g transform="translate(1453.4348381178497 510.0820692673987) rotate(0 24.80113198791787 42.73569700489307)"><path d="M-0.65 -0.58 C7.68 13.61, 41.63 70.58, 50.25 84.68 M1.21 1.73 C9.32 16.13, 40.87 72.2, 49.09 86.05" stroke="#000000" stroke-width="4" fill="none"></path></g><g transform="translate(1453.4348381178497 510.0820692673987) rotate(0 24.80113198791787 42.73569700489307)"><path d="M25.17 66.06 C32.97 73.79, 39.33 80.77, 49.73 87.48 M26.11 65.74 C35.9 75.05, 44.3 82.5, 48.83 86.59" stroke="#000000" stroke-width="4" fill="none"></path></g><g transform="translate(1453.4348381178497 510.0820692673987) rotate(0 24.80113198791787 42.73569700489307)"><path d="M42.96 55.82 C44.95 66.78, 45.55 77.07, 49.73 87.48 M43.89 55.5 C46.67 68.92, 48.04 80.42, 48.83 86.59" stroke="#000000" stroke-width="4" fill="none"></path></g></g><mask></mask><g stroke-linecap="round"><g transform="translate(9.660878303544564 1032.5162739917855) rotate(0 1573.841353102849 -0.7558737773110238)"><path d="M1.18 -0.26 C525.8 -0.16, 2623.1 0.36, 3147.34 0.29 M0.34 -1.44 C524.91 -1.69, 2622.58 -1.97, 3146.85 -1.68" stroke="#000000" stroke-width="4" fill="none"></path></g></g><mask></mask><g mask="url(#mask-X1aD5H2EydPvHsKux-RkS)" stroke-linecap="round"><g transform="translate(1526.4969236376373 874.887339662195) rotate(0 -138.54303775503286 216.40791983143316)"><path d="M0.57 0.67 C-45.77 72.39, -231.44 359.38, -277.65 431.36 M-0.59 -0.03 C-46.56 71.81, -229.15 361.05, -275.27 432.85" stroke="#000000" stroke-width="4" fill="none"></path></g><g transform="translate(1526.4969236376373 874.887339662195) rotate(0 -138.54303775503286 216.40791983143316)"><path d="M-267.68 402.53 C-270.87 413.82, -271.04 424.26, -273.44 431.31 M-269.61 404.12 C-271.5 411.8, -273.62 419.85, -275.2 432.81" stroke="#000000" stroke-width="4" fill="none"></path></g><g transform="translate(1526.4969236376373 874.887339662195) rotate(0 -138.54303775503286 216.40791983143316)"><path d="M-250.37 413.54 C-259.37 421.28, -265.27 428.07, -273.44 431.31 M-252.29 415.13 C-259.02 419.53, -266.04 424.46, -275.2 432.81" stroke="#000000" stroke-width="4" fill="none"></path></g></g><mask id="mask-X1aD5H2EydPvHsKux-RkS"><rect x="0" y="0" fill="#fff" width="1903.535280221929" height="1406.357763732402"></rect><rect x="1345.7902453454913" y="1069.0225516972982" fill="#000" width="84.375" height="43.199999999999996" opacity="1"></rect></mask><g transform="translate(1345.7902453454913 1069.0225516972982) rotate(0 42.163640537113 22.272707796329712)"><text x="42.1875" y="0" font-family="Cascadia, Segoe UI Emoji" font-size="36px" fill="#000000" text-anchor="middle" style="white-space: pre;" direction="ltr" dominant-baseline="text-before-edge">base</text></g><g mask="url(#mask-51Uj8MJxVxMoM8TZakXLg)" stroke-linecap="round"><g transform="translate(1649.037343256085 875.7313084605519) rotate(0 122.85032747512025 220.63835893961965)"><path d="M-0.56 -0.2 C40.33 73.28, 205.15 367.55, 246.26 441.14 M1.34 -1.35 C41.99 72.3, 204.65 368.62, 245.29 442.63" stroke="#000000" stroke-width="4" fill="none"></path></g><g transform="translate(1649.037343256085 875.7313084605519) rotate(0 122.85032747512025 220.63835893961965)"><path d="M222.39 422.78 C231.13 430.05, 239.95 436.68, 246.5 441.72 M223.64 423.28 C228.14 428.89, 234.34 432.28, 245.8 442.9" stroke="#000000" stroke-width="4" fill="none"></path></g><g transform="translate(1649.037343256085 875.7313084605519) rotate(0 122.85032747512025 220.63835893961965)"><path d="M240.38 412.9 C242.36 423.81, 244.39 434.17, 246.5 441.72 M241.63 413.41 C241.46 421.54, 243.04 427.47, 245.8 442.9" stroke="#000000" stroke-width="4" fill="none"></path></g></g><mask id="mask-51Uj8MJxVxMoM8TZakXLg"><rect x="0" y="0" fill="#fff" width="1995.3444802069744" height="1416.9625013571115"></rect><rect x="1719.45653673153" y="1074.7469049088315" fill="#000" width="105.46875" height="43.199999999999996" opacity="1"></rect></mask><g transform="translate(1719.4565367315295 1074.7469049088318) rotate(0 52.43113399967558 21.62276249133987)"><text x="52.734375" y="0" font-family="Cascadia, Segoe UI Emoji" font-size="36px" fill="#000000" text-anchor="middle" style="white-space: pre;" direction="ltr" dominant-baseline="text-before-edge">store</text></g><g transform="translate(2556.5020694497734 938.5879644771942) rotate(0 137.109375 21.600000000000023)"><text x="0" y="0" font-family="Cascadia, Segoe UI Emoji" font-size="36px" fill="#000000" text-anchor="start" style="white-space: pre;" direction="ltr" dominant-baseline="text-before-edge">Internal View</text></g><g transform="translate(2559.863098886667 1076.0434800500452) rotate(0 137.109375 21.600000000000023)"><text x="0" y="0" font-family="Cascadia, Segoe UI Emoji" font-size="36px" fill="#000000" text-anchor="start" style="white-space: pre;" direction="ltr" dominant-baseline="text-before-edge">External View</text></g><g stroke-linecap="round" transform="translate(1018.2477131717469 1296.1715573359056) rotate(0 156.5 127)"><path d="M201.34 5.33 C216.79 6.91, 232.44 15.5, 245.62 22.83 C258.8 30.15, 270.76 38.89, 280.4 49.28 C290.04 59.66, 297.93 72.59, 303.49 85.14 C309.05 97.68, 313.12 111.62, 313.75 124.55 C314.39 137.48, 312.02 150.25, 307.31 162.72 C302.6 175.18, 294.92 188.45, 285.5 199.34 C276.08 210.22, 263.63 220.3, 250.81 228.05 C237.99 235.8, 223.62 241.45, 208.59 245.84 C193.56 250.23, 176.94 253.82, 160.64 254.39 C144.35 254.97, 126.18 253.16, 110.79 249.29 C95.41 245.43, 81.54 238.61, 68.32 231.21 C55.1 223.8, 41.37 215.07, 31.47 204.86 C21.58 194.65, 14.27 182.43, 8.94 169.95 C3.61 157.46, 0.03 143.12, -0.52 129.93 C-1.07 116.73, 0.95 103.16, 5.63 90.77 C10.31 78.38, 18.32 66.49, 27.55 55.6 C36.78 44.72, 48.01 33.4, 61.02 25.45 C74.03 17.49, 90.3 12.15, 105.61 7.89 C120.92 3.63, 135.69 0.08, 152.9 -0.09 C170.11 -0.26, 198.23 4.75, 208.88 6.87 C219.52 8.98, 217.56 10.65, 216.76 12.59 M178.69 2.1 C193.8 1.89, 209.24 6.15, 223.79 11.87 C238.34 17.59, 254.04 27.27, 265.99 36.4 C277.95 45.52, 288.28 55.17, 295.54 66.62 C302.8 78.07, 306.98 92, 309.55 105.09 C312.11 118.18, 312.83 132.12, 310.92 145.14 C309.02 158.16, 304.98 171.38, 298.09 183.19 C291.2 195.01, 280.68 206.88, 269.59 216.02 C258.5 225.16, 245.82 231.79, 231.55 238.03 C217.29 244.26, 200.24 251.03, 184 253.45 C167.76 255.87, 150.05 254.53, 134.1 252.54 C118.14 250.55, 102.73 247.19, 88.27 241.53 C73.82 235.87, 58.78 227.91, 47.36 218.59 C35.93 209.27, 27.37 197.4, 19.73 185.62 C12.08 173.85, 4.48 160.39, 1.51 147.93 C-1.46 135.46, -0.28 123.78, 1.9 110.83 C4.09 97.87, 7.69 82.17, 14.61 70.2 C21.53 58.23, 32.03 48.4, 43.42 39.01 C54.81 29.62, 68.6 20.09, 82.94 13.85 C97.28 7.6, 113.8 3.71, 129.46 1.53 C145.13 -0.66, 168.9 0.2, 176.94 0.76 C184.98 1.32, 177.73 2.8, 177.71 4.9" stroke="#000000" stroke-width="4" fill="none"></path></g><g transform="translate(1069.1167519160522 1358.5689961252142) rotate(0 105.46875 64.79999999999995)"><text x="105.46875" y="0" font-family="Cascadia, Segoe UI Emoji" font-size="36px" fill="#000000" text-anchor="middle" style="white-space: pre;" direction="ltr" dominant-baseline="text-before-edge">128 Extent</text><text x="105.46875" y="43.199999999999996" font-family="Cascadia, Segoe UI Emoji" font-size="36px" fill="#000000" text-anchor="middle" style="white-space: pre;" direction="ltr" dominant-baseline="text-before-edge">/ 1024 MB</text><text x="105.46875" y="86.39999999999999" font-family="Cascadia, Segoe UI Emoji" font-size="36px" fill="#000000" text-anchor="middle" style="white-space: pre;" direction="ltr" dominant-baseline="text-before-edge">(or) 1GB</text></g><g stroke-linecap="round" transform="translate(1800.6803673194127 1308.960122874345) rotate(0 150.5825390757184 126.68054874623931)"><path d="M167.74 -0.03 C183.38 -0.29, 201.17 6.96, 216.09 12.99 C231.02 19.01, 245.59 26.6, 257.29 36.13 C268.99 45.65, 279.28 57.86, 286.3 70.14 C293.32 82.43, 297.53 96.13, 299.43 109.86 C301.32 123.58, 300.91 139.12, 297.7 152.5 C294.48 165.87, 288.29 178.53, 280.13 190.1 C271.97 201.67, 261.19 212.8, 248.73 221.93 C236.28 231.07, 220.43 239.58, 205.4 244.91 C190.38 250.23, 174.84 253.39, 158.58 253.87 C142.31 254.35, 123.53 251.8, 107.81 247.8 C92.1 243.8, 77.38 237.62, 64.28 229.87 C51.19 222.11, 38.86 212.42, 29.25 201.28 C19.64 190.14, 11.57 176.33, 6.63 163.03 C1.68 149.73, -0.87 135.01, -0.41 121.49 C0.05 107.97, 3.6 94.51, 9.41 81.9 C15.22 69.28, 23.8 56.36, 34.45 45.81 C45.09 35.26, 59.34 25.74, 73.29 18.58 C87.24 11.42, 100.13 5.61, 118.15 2.84 C136.17 0.07, 168.88 1.08, 181.42 1.95 C193.96 2.82, 193.75 5.72, 193.4 8.04 M113.37 2.78 C127.9 -2.58, 146.71 -1.33, 162.82 0.13 C178.94 1.58, 195.18 5.85, 210.06 11.5 C224.93 17.14, 239.89 24.95, 252.07 33.98 C264.24 43.01, 275.44 53.42, 283.1 65.69 C290.76 77.97, 295.45 93.97, 298.05 107.63 C300.64 121.3, 301.4 134.51, 298.7 147.68 C296 160.84, 289.76 174.69, 281.84 186.63 C273.92 198.57, 262.98 209.98, 251.17 219.31 C239.37 228.63, 225.73 236.74, 211.01 242.59 C196.28 248.44, 179.04 253.23, 162.81 254.4 C146.59 255.57, 129.7 253.06, 113.65 249.59 C97.61 246.13, 80.19 241.37, 66.52 233.62 C52.85 225.87, 41.41 214, 31.63 203.11 C21.86 192.22, 13.11 180.93, 7.86 168.27 C2.62 155.61, 0.28 141.05, 0.18 127.12 C0.08 113.19, 1.74 97.86, 7.28 84.69 C12.81 71.52, 23.39 58.6, 33.4 48.1 C43.42 37.6, 54.14 28.84, 67.36 21.69 C80.57 14.53, 104.69 7.67, 112.67 5.16 C120.66 2.65, 114.63 4.6, 115.27 6.65" stroke="#000000" stroke-width="4" fill="none"></path></g><g transform="translate(1856.3630968864022 1392.3639965576854) rotate(0 94.921875 43.200000000000045)"><text x="94.921875" y="0" font-family="Cascadia, Segoe UI Emoji" font-size="36px" fill="#000000" text-anchor="middle" style="white-space: pre;" direction="ltr" dominant-baseline="text-before-edge">50 Extent</text><text x="94.921875" y="43.199999999999996" font-family="Cascadia, Segoe UI Emoji" font-size="36px" fill="#000000" text-anchor="middle" style="white-space: pre;" direction="ltr" dominant-baseline="text-before-edge">/ 400 MB</text></g></svg>